<?xml version="1.0" standalone="no"?>
<!DOCTYPE svg PUBLIC "-//W3C//DTD SVG 1.1//EN" "http://www.w3.org/Graphics/SVG/1.1/DTD/svg11.dtd" >
<svg xmlns="http://www.w3.org/2000/svg">
<metadata></metadata>
<defs>
<font id="apertobold_italic" horiz-adv-x="943" >
<font-face units-per-em="2048" ascent="1638" descent="-410" />
<missing-glyph horiz-adv-x="551" />
<glyph horiz-adv-x="2048" />
<glyph horiz-adv-x="2048" />
<glyph unicode="&#xd;" horiz-adv-x="551" />
<glyph unicode=" "  horiz-adv-x="551" />
<glyph unicode="&#x09;" horiz-adv-x="551" />
<glyph unicode="&#xa0;" horiz-adv-x="551" />
<glyph unicode="!" horiz-adv-x="450" d="M27 87q0 49 30.5 89.5t77.5 40.5q43 0 70.5 -30.5t27.5 -74.5q0 -52 -38.5 -97.5t-88.5 -34.5q-79 17 -79 107zM131 288q22 96 108 843q3 28 34 47t67 19q39 0 76.5 -26t37.5 -64q0 -9 -3 -18l-249 -801h-71z" />
<glyph unicode="&#x22;" horiz-adv-x="622" d="M162 1128q0 19 18 37t42 18t43 -18t19 -37q0 -6 -17.5 -127.5t-17.5 -145t-25 -23.5q-24 0 -24 22q-38 255 -38 274zM395 1128q0 19 18.5 37t41.5 18q24 0 43 -18t19 -37q0 -6 -17.5 -127.5t-17.5 -145t-25 -23.5q-24 0 -24 22q-38 255 -38 274z" />
<glyph unicode="#" horiz-adv-x="975" d="M-28 364l19 88h196l43 199h-198l18 89h197l78 363h91l-77 -363h167l77 363h93l-77 -363h197l-19 -89h-196l-42 -199h195l-17 -88h-197l-77 -364h-93l77 364h-167l-77 -364h-92l78 364h-197zM277 452h169l42 199h-168z" />
<glyph unicode="$" horiz-adv-x="896" d="M-25 87l28 138q93 -71 148 -93t140 -19l92 423q-101 93 -175 187q-39 50 -39 115q0 95 78 161q91 76 251 72l17 79h69l-17 -80q82 -5 249 -43l-27 -142q-128 96 -238 109l-72 -335q71 -68 94 -95q47 -52 86 -113q33 -54 33 -117q0 -107 -89 -187q-96 -90 -258 -103 l-19 -91h-69l19 90q-135 0 -301 44zM326 865q0 -44 27 -77q8 -11 68 -74l59 280q-154 -9 -154 -129zM362 123q162 41 163 183q0 96 -85 173z" />
<glyph unicode="%" horiz-adv-x="1220" d="M58 41l923 1082l70 -60l-917 -1080zM98 829q0 118 80 201.5t195 83.5q83 0 137 -49q62 -53 62 -154q0 -117 -82 -202t-195 -85q-83 0 -137 49q-60 55 -60 156zM227 859q0 -24 3 -45q17 -143 95 -143q13 0 26 6q90 38 90 205q1 23 -1 43q-5 50 -27 91q-28 52 -68 52 q-13 0 -27 -6q-91 -38 -91 -203zM542 194q0 118 80.5 201.5t195.5 83.5q83 0 137 -49q61 -53 61 -154q0 -117 -82 -202t-195 -85q-83 0 -137 49q-60 55 -60 156zM671 224q0 -24 3 -44q17 -143 95 -144q13 0 27 7q90 38 89 204q1 23 -1 43q-5 50 -27 91q-28 52 -68 52 q-13 0 -27 -6q-91 -38 -91 -203z" />
<glyph unicode="&#x26;" horiz-adv-x="1244" d="M-50 369q0 271 340 365q-35 109 -35 162q0 60 33 112q74 115 208 115q91 0 160 -56.5t69 -144.5q0 -24 -7 -49q-32 -129 -244 -189q96 -238 236 -374q68 110 106 350h202q-72 -46 -114 -129q-24 -63 -49 -126q-19 -46 -80 -158q123 -102 351 -198l-277 -71 q-65 32 -184 134q-134 -126 -309 -126q-164 0 -285 108t-121 275zM121 430q0 -19 3 -38q17 -126 104 -205.5t196 -79.5q101 0 181 71q-88 106 -176 255q-77 132 -109 218q-198 -41 -199 -221zM403 933q0 -61 43 -177q183 35 183 155q0 52 -37 92t-86 40q-15 0 -29 -5 q-74 -24 -74 -105z" />
<glyph unicode="'" horiz-adv-x="384" d="M156 1128q0 19 18 37t42 18t42.5 -18t18.5 -37q0 -6 -17 -127.5t-17 -145t-26 -23.5q-24 0 -23 22q-38 255 -38 274z" />
<glyph unicode="(" horiz-adv-x="680" d="M145 521q0 206 98 364q107 175 312 252v-91q-236 -142 -237 -525q0 -383 237 -523v-93q-205 79 -312 254q-98 158 -98 362z" />
<glyph unicode=")" horiz-adv-x="760" d="M164 -2q236 140 236 523t-236 525v91q205 -77 312 -252q97 -158 97 -364q0 -205 -97 -362q-107 -175 -312 -254v93z" />
<glyph unicode="*" horiz-adv-x="875" d="M66 909l158 36l-111 82l46 76l109 -115l22 137h90l-46 -148l132 53l48 -77l-160 -38l114 -78l-46 -78l-113 111l-21 -136h-90l46 148l-129 -49z" />
<glyph unicode="+" horiz-adv-x="1121" d="M63 397v107h354v356h109v-356h356v-107h-356v-354h-109v354h-354z" />
<glyph unicode="," horiz-adv-x="433" d="M17 -106q58 65 81 108q2 6 -22 23q-47 33 -48 87q0 41 31.5 72.5t72.5 31.5q43 0 73.5 -31.5t30.5 -75.5q0 -55 -56 -131q-44 -59 -101 -102z" />
<glyph unicode="-" horiz-adv-x="850" d="M96 354l63 153q285 0 347 5q136 9 204 55l-66 -156q-287 0 -346 -5q-137 -9 -202 -52z" />
<glyph unicode="." horiz-adv-x="437" d="M27 87q0 49 30.5 89.5t77.5 40.5q43 0 70.5 -30.5t27.5 -74.5q0 -52 -38.5 -97.5t-88.5 -34.5q-79 17 -79 107z" />
<glyph unicode="/" horiz-adv-x="891" d="M41 -107l495 1323h121l-495 -1323h-121z" />
<glyph unicode="0" horiz-adv-x="901" d="M38 323q0 192 125 335.5t313 143.5q132 0 216 -79q96 -90 96 -257q0 -189 -123 -332q-129 -148 -314 -148q-131 0 -217 80q-96 91 -96 257zM216 373q0 -36 5 -67q11 -85 53 -155q52 -85 126 -85q24 0 51 10q162 63 162 338q0 36 -5 68q-11 85 -53 154q-52 85 -126 86 q-24 0 -51 -10q-162 -63 -162 -339z" />
<glyph unicode="1" horiz-adv-x="437" d="M2 -83l141 623q3 11 4 22q0 41 -32 41q-25 0 -68 -28l16 63l307 197l-137 -618q-17 -77 3 -156z" />
<glyph unicode="2" horiz-adv-x="817" d="M-39 58l419 367q106 93 105 186q0 55 -35.5 90.5t-82.5 35.5q-82 0 -140 -34q-38 -22 -131 -111l27 139q107 76 265 76q132 0 202 -44.5t70 -118.5q2 -124 -170 -260l-373 -294h225q121 0 165 6q85 11 137 55l-71 -149h-601z" />
<glyph unicode="3" horiz-adv-x="812" d="M-143 -301l26 117q110 -83 226 -84q121 0 207.5 86.5t89.5 197.5q3 110 -44 182q-55 82 -157 76l16 73q109 11 174 91q58 69 59 156q0 140 -126 145q-123 5 -270 -142l33 139q117 72 251 72q121 0 204.5 -58.5t83.5 -154.5q0 -134 -228 -275q198 -95 198 -266 q0 -161 -147 -274.5t-366 -113.5q-113 0 -230 33z" />
<glyph unicode="4" horiz-adv-x="957" d="M-55 101l838 715l36 -55l-146 -637h104l-22 -86h-104l-24 -104q-17 -74 3 -151l-247 -141l93 396h-509zM90 124h405l102 434z" />
<glyph unicode="5" horiz-adv-x="882" d="M-96 -299l27 121q101 -82 223 -88q120 -6 215 107q83 102 83 206q0 115 -72 185q-79 77 -232 77q-41 0 -85 -7l109 487h559l41 -171q-77 85 -236 85h-205l-71 -320q175 -17 279.5 -104t106.5 -225q2 -162 -139 -271q-143 -115 -367 -115q-115 0 -236 33z" />
<glyph unicode="6" horiz-adv-x="937" d="M66 389q0 25 2 51q27 315 247 488q189 148 443 148q50 0 99 -6l5 -120q-82 43 -177 42q-145 0 -255 -96q-128 -110 -172 -318q124 117 279 109q126 -6 207 -112q76 -98 63 -213q-19 -189 -148 -293q-109 -88 -257 -88q-161 0 -254 126q-82 115 -82 282zM239 378 q0 -306 194 -323q104 -9 162 74q52 72 52 188q0 106 -44 182q-45 85 -121 93q-150 14 -238 -138q-5 -36 -5 -76z" />
<glyph unicode="7" horiz-adv-x="879" d="M28 618l89 171h691l18 -53q-334 -383 -448 -593q-90 -165 -107 -370l-227 -131q5 400 652 1061h-370q-112 0 -142 -7q-69 -14 -156 -78z" />
<glyph unicode="8" horiz-adv-x="1031" d="M33 326q5 205 274 337q-104 74 -102 197q2 124 109 199q98 68 233 67q126 0 208 -59q93 -68 88 -186q-5 -142 -203 -243q221 -124 223 -321q2 -151 -149 -249q-135 -87 -308 -87q-154 0 -263 96q-113 101 -110 249zM139 317q-2 -104 97 -182q95 -74 213 -74q30 0 58 7 q69 16 119 74t50 116q0 150 -118 249q-83 54 -167 107q-123 -58 -164 -94q-87 -76 -88 -203zM388 898q0 -80 69 -143q24 -20 98 -65q192 69 184 214q-3 72 -58 114q-49 36 -119 36q-60 0 -108 -28.5t-60 -78.5q-6 -25 -6 -49z" />
<glyph unicode="9" horiz-adv-x="934" d="M-22 -164q82 -43 178 -42q143 0 255 96q128 110 172 318q-128 -115 -279 -109q-126 5 -206 111q-77 101 -65 215q19 189 148 293q110 88 259 89q159 0 252 -128q82 -113 82 -282q0 -25 -2 -50q-27 -314 -246 -487q-187 -150 -439 -150q-54 0 -103 8zM194 471 q0 -106 42 -184q47 -85 123 -93q148 -14 236 140q5 35 5 79q0 302 -192 320q-104 9 -164 -74q-50 -74 -50 -188z" />
<glyph unicode=":" horiz-adv-x="436" d="M27 87q0 49 30.5 89.5t77.5 40.5q43 0 70.5 -30.5t27.5 -74.5q0 -52 -38.5 -97.5t-88.5 -34.5q-79 17 -79 107zM101 421q0 49 30.5 89.5t78.5 40.5q43 0 70 -30.5t27 -74.5q0 -52 -38.5 -97.5t-88.5 -34.5q-79 17 -79 107z" />
<glyph unicode=";" horiz-adv-x="436" d="M17 -106q58 65 81 108q2 6 -22 23q-47 33 -48 87q0 41 31.5 72.5t72.5 31.5q43 0 73.5 -31.5t30.5 -75.5q0 -55 -56 -131q-44 -59 -101 -102zM101 421q0 49 30.5 89.5t78.5 40.5q43 0 70 -30.5t27 -74.5q0 -52 -38.5 -97.5t-88.5 -34.5q-79 17 -79 107z" />
<glyph unicode="&#x3c;" horiz-adv-x="1298" d="M54 406v51l898 413v-126l-676 -312l676 -314v-123z" />
<glyph unicode="=" horiz-adv-x="1121" d="M65 274v107h819v-107h-819zM65 517v107h819v-107h-819z" />
<glyph unicode="&#x3e;" horiz-adv-x="1294" d="M148 -5v123l676 314l-676 312v126l898 -413v-51z" />
<glyph unicode="?" horiz-adv-x="797" d="M153 87q0 49 30.5 89.5t78.5 40.5q43 0 70 -30.5t27 -74.5q0 -52 -38.5 -97.5t-88.5 -34.5q-79 17 -79 107zM161 933l50 182q106 76 268 78q120 2 205 -40q96 -47 116 -142q5 -24 5 -47q0 -107 -102 -208q-58 -46 -117 -90q-124 -98 -178 -170q-63 -87 -65 -186l-85 -55 q0 202 172 388q66 71 132 140q54 71 60 162q5 65 -34 117q-44 58 -119 63q-91 5 -171 -54q-49 -36 -137 -138z" />
<glyph unicode="@" horiz-adv-x="1613" d="M52 493q0 255 186.5 434t445.5 182q239 2 411 -155t172 -381q0 -150 -105.5 -264.5t-254.5 -114.5q-159 0 -145 181q-57 -72 -148 -125t-167 -53q-41 0 -69 17q-63 36 -63 191q0 208 140 354q88 93 267 93q110 0 270 -33l-107 -461q-8 -32 -8 -54q0 -54 52 -57 q88 -6 177 87q96 101 96 238q0 57 -19 115q-54 161 -184 263q-135 106 -301 106q-167 0 -317 -128q-158 -134 -200 -331q-13 -61 -12 -124q0 -216 133 -372q140 -164 358 -175q183 -8 345 102l30 -45q-159 -110 -350 -111q-71 0 -141 18q-219 54 -355.5 223t-136.5 380z M444 405q0 -71 38 -101q11 -8 39 -8q71 0 139 57q95 79 145 244l55 181q-54 16 -104 16q-129 0 -189 -74q-52 -65 -87.5 -154.5t-35.5 -160.5z" />
<glyph unicode="A" horiz-adv-x="949" d="M-246 3q93 83 109 99q32 33 66 87l596 931h63l225 -917q16 -65 36 -101q1 -1 66 -99h-244l-96 397h-408l-257 -397h-156zM222 487h331l-90 373z" />
<glyph unicode="B" horiz-adv-x="965" d="M-49 0q79 98 104 206l164 727q5 25 5 52q0 56 -24 118h266q172 0 282 -62q131 -72 131 -209q0 -50 -41 -106q-52 -71 -143 -82q106 -20 159 -124q36 -70 36 -142v-8q-8 -370 -506 -370h-433zM213 87h234q101 0 172 66q77 71 77 188q0 256 -339 256h-29zM347 684h127 q202 0 221 137q1 9 1 16v7q0 88 -88 136q-67 37 -154 37q-16 0 -32 -1z" />
<glyph unicode="C" horiz-adv-x="1022" d="M30 503q0 167 105 329q124 191 336 269q85 32 183 32q148 0 348 -76l-35 -180q-159 176 -323 177q-79 0 -162 -39q-267 -125 -267 -482q0 -26 1 -54q6 -132 86 -249q104 -151 276 -151q128 0 265 115l63 -65q-174 -145 -377 -145h-8q-238 3 -367 144q-124 135 -124 375z " />
<glyph unicode="D" horiz-adv-x="1220" d="M-49 0q79 98 104 206l164 727q6 28 6 56q0 61 -25 115h444q262 0 407 -130q140 -127 140 -344q0 -172 -93 -318q-117 -184 -356 -277q-90 -35 -233 -35h-558zM214 87h270q224 0 369.5 145t145.5 370q0 161 -85 271q-109 145 -336 145h-156z" />
<glyph unicode="E" horiz-adv-x="869" d="M-50 0q82 101 105 206l164 727q6 28 6 56q0 61 -25 115h641l36 -132q-85 46 -230 46h-225l-74 -331h411l-20 -87h-410l-121 -513h263q222 0 282 69l-68 -156h-735z" />
<glyph unicode="F" horiz-adv-x="828" d="M-49 2q80 98 104 204l164 727q6 28 6 56q0 61 -25 115h660l36 -130q-129 44 -230 44h-244l-83 -378h408l-22 -87h-407l-126 -551h-241z" />
<glyph unicode="G" horiz-adv-x="1091" d="M30 503q0 167 105 329q124 191 336 269q85 32 183 32q148 0 348 -76l-35 -180q-159 176 -323 177q-79 0 -162 -39q-267 -125 -267 -482q0 -27 1 -54q5 -99 55 -197q61 -123 167 -172q85 -39 165 -39q61 0 104 20l52 238q3 14 3 30q0 72 -63 140h281l-93 -419 q-182 -96 -349 -96h-17q-239 6 -367 145q-124 134 -124 374z" />
<glyph unicode="H" horiz-adv-x="1231" d="M-49 2q80 98 104 204l164 727q6 27 6 56q0 61 -25 115h240l-101 -464h575l107 464h239q-79 -99 -102 -204l-164 -727q-6 -25 -6 -52q0 -65 30 -119h-248l125 551h-577l-126 -551h-241z" />
<glyph unicode="I" horiz-adv-x="485" d="M-38 2q80 98 104 204l164 728q6 27 6 57q0 61 -25 113h240l-248 -1102h-241z" />
<glyph unicode="J" horiz-adv-x="471" d="M-219 -277q107 41 154 97q58 72 97 243l195 870q6 28 6 58q0 63 -25 113h239l-228 -1043q-71 -323 -331 -375z" />
<glyph unicode="K" horiz-adv-x="981" d="M-49 2q80 98 104 204l164 728q6 28 6 57q0 61 -25 113h240l-86 -384l460 384h172q-72 -43 -189 -123l-329 -277q58 -109 109 -198q124 -214 197 -304q58 -71 217 -189l-247 -45q-187 257 -394 635l-25 -19l-133 -582h-241z" />
<glyph unicode="L" horiz-adv-x="819" d="M-50 0q82 101 105 206l164 728q6 27 6 57q0 61 -25 113h240l-237 -1017h268q102 0 137 8.5t147 60.5l-71 -156h-734z" />
<glyph unicode="M" horiz-adv-x="1472" d="M-124 0q49 72 88 176l362 958h71l227 -904l704 904h66l-79 -928q-2 -22 -2 -43q0 -86 29 -163h-230l71 803l-644 -835h-36l-202 815l-303 -783h-122z" />
<glyph unicode="N" horiz-adv-x="1209" d="M-50 0q57 93 72 165l216 969h60l616 -880l192 850h126q-47 -76 -68 -165l-217 -974h-60l-616 881l-191 -846h-130z" />
<glyph unicode="O" horiz-adv-x="1195" d="M30 498q0 232 178 427q185 206 431 206h12q194 -3 321 -101q173 -132 173 -411q0 -233 -171 -425q-186 -206 -449 -208h-7q-184 0 -313 97q-175 134 -175 415zM213 573q-2 -25 -2 -48q0 -157 80 -282q104 -164 289 -164q135 0 239 108q125 127 144 357q2 22 2 44 q0 119 -51 230q-83 183 -278 217q-20 3 -41 3q-132 0 -239 -109q-126 -129 -143 -356z" />
<glyph unicode="P" horiz-adv-x="883" d="M-49 2q80 98 104 204l164 727q6 28 6 56q0 61 -25 115h170q249 0 333 -41q179 -88 181 -280q0 -140 -109.5 -228.5t-265.5 -88.5q-93 0 -181 33l56 67q63 -28 119 -29q91 0 144 74q46 65 49 148v13q0 116 -50 175q-64 71 -218 71h-4l-232 -1016h-241z" />
<glyph unicode="Q" horiz-adv-x="1195" d="M30 498q0 232 178 427q185 206 431 206h12q194 -3 321 -101q173 -132 173 -411q0 -164 -93 -317q-96 -159 -255 -247q-112 -61 -266 -109q22 -6 142 -67q205 -104 338 -104q52 0 103 12l-238 -164q-170 49 -389 188q-93 60 -183 82q-69 11 -137 22l13 35q129 0 256 42 q-169 22 -272 128q-134 134 -134 378zM213 573q-2 -25 -2 -48q0 -157 80 -282q104 -164 289 -164q135 0 239 108q125 127 144 357q2 22 2 44q0 119 -51 230q-83 183 -278 217q-20 3 -41 3q-132 0 -239 -109q-126 -129 -143 -356z" />
<glyph unicode="R" horiz-adv-x="986" d="M-49 3q80 98 104 205l164 726q6 28 6 57q0 61 -25 113h170q142 0 188 -4q132 -14 206 -71q115 -87 115 -232q0 -107 -97.5 -195t-203.5 -88q-16 0 -30 1q194 -356 460 -493l-260 -54q-96 55 -242 322q-101 184 -139 283l21 24q61 -22 113 -22q95 0 146 72q43 60 46 145 v11q0 90 -46 142q-65 73 -219 73h-12l-224 -1015h-241z" />
<glyph unicode="S" horiz-adv-x="850" d="M-76 38l32 162q132 -115 219 -128q43 -6 82 -6q129 0 206 66q71 60 71 150q0 74 -49 137q-32 41 -129.5 134.5t-171.5 185.5q-44 55 -44 129t46.5 138.5t130.5 91.5q102 33 203 33q107 0 345 -52l-28 -165q-144 133 -312 133q-17 0 -35 -1q-165 -13 -165 -143 q0 -50 31 -87q54 -61 192 -194q95 -91 148 -179q36 -60 37 -122q0 -79 -59 -168q-107 -167 -403 -167q-148 0 -347 52z" />
<glyph unicode="T" horiz-adv-x="934" d="M38 974l53 130h952l33 -127q-50 16 -101 31q-41 9 -127 10h-205l-230 -1016h-241q80 98 104 204l182 812h-220q-96 0 -118 -5t-82 -39z" />
<glyph unicode="U" horiz-adv-x="1202" d="M77 427q0 96 27 211l68 296q6 27 6 57q0 58 -20 113h234l-113 -518q-17 -80 -17 -151q0 -164 88 -259q82 -89 209 -89h3q124 0 224 64q124 82 161 248l154 705h128q-47 -72 -70 -170l-119 -539q-49 -221 -197 -330q-124 -95 -293 -95q-88 0 -170 27q-302 99 -303 430z " />
<glyph unicode="V" horiz-adv-x="949" d="M22 1104h238l209 -860l552 860h154q-87 -79 -107 -99q-30 -33 -64 -87l-596 -934h-63l-225 920q-20 87 -98 200z" />
<glyph unicode="W" horiz-adv-x="1770" d="M24 1104h238l207 -860l547 859h63l208 -859l553 860h154q-90 -82 -107 -99q-33 -35 -66 -87l-595 -934h-63l-210 853l-545 -853h-63l-225 920q-22 90 -96 200z" />
<glyph unicode="X" horiz-adv-x="880" d="M-224 2q88 58 93 61q43 30 90 77l386 385l-173 384q-35 77 -133 195h248l193 -441l443 441h170q-80 -54 -93 -61q-43 -32 -89 -79l-390 -391l166 -375q27 -61 53 -96q8 -11 90 -100h-255l-192 431l-437 -431h-170z" />
<glyph unicode="Y" horiz-adv-x="960" d="M-112 -290q162 66 242 116.5t127 123.5l69 107l-206 847q-22 91 -96 202l238 -2l207 -860l552 860h154q-88 -79 -105 -99q-32 -33 -66 -87l-596 -932q-145 -228 -252 -323z" />
<glyph unicode="Z" horiz-adv-x="927" d="M-74 61l750 957h-348q-82 0 -122 -8q-50 -11 -141 -55l69 149h775l17 -56l-753 -961h460q85 0 120 8q54 13 147 61l-73 -156h-884z" />
<glyph unicode="[" horiz-adv-x="685" d="M72 -52v1213h338v-61l-164 -10v-1076l164 -11v-55h-338z" />
<glyph unicode="\" horiz-adv-x="776" d="M164 1215h113l246 -1324h-117z" />
<glyph unicode="]" horiz-adv-x="685" d="M282 3l164 11v1076l-164 10v61h337v-1213h-337v55z" />
<glyph unicode="^" horiz-adv-x="1024" d="M225 444l304 561h29l302 -561h-96l-219 413l-224 -413h-96z" />
<glyph unicode="_" horiz-adv-x="841" d="M-110 -55h882v-109h-882v109z" />
<glyph unicode="`" d="M339 1128q0 25 14 39.5t41 14.5q27 -2 41 -15t179 -226q9 -19 -1 -30q-6 -3 -16 -4q-9 0 -14 4q-19 17 -121.5 94t-108.5 84q-14 14 -14 39z" />
<glyph unicode="a" d="M35 236v9q0 251 170 434q109 117 337 117q135 0 313 -41l-110 -478q-12 -51 -12 -110v-9q0 -82 17 -158h-206q-4 35 -4 71q0 92 26 192q-80 -121 -185 -199q-100 -74 -183 -73h-9q-151 5 -154 245zM211 230q0 -91 41 -110q4 -2 9 -1q24 0 86 34q85 50 152 126 q85 98 114 209l55 219q-93 17 -154 18q-96 0 -166 -71q-47 -49 -92 -185.5t-45 -238.5z" />
<glyph unicode="b" horiz-adv-x="924" d="M14 35l232 1030q6 30 6 61q0 58 -22 103l238 47l-164 -750q80 120 185 198q101 75 185 76q3 0 7 -1q151 -5 154 -246v-9q0 -251 -170 -434q-108 -116 -333 -116h-4q-135 0 -314 41zM202 82q93 -17 154 -17q96 0 165 70q47 49 92.5 185.5t45.5 238.5q0 92 -41 111 q-3 2 -9 2q-24 0 -86 -36q-85 -50 -153 -126q-85 -98 -113 -209q-14 -61 -55 -219z" />
<glyph unicode="c" horiz-adv-x="746" d="M-2 318q0 221 141 359q128 128 308 128h8q129 -2 268 -24l-38 -159q-106 104 -242 111h-12q-120 0 -185 -115q-50 -93 -51 -218q0 -148 52 -240t136 -92q115 0 242 160l60 -56q-155 -186 -363 -186h-2q-134 2 -222 79q-99 90 -100 253z" />
<glyph unicode="d" d="M35 236v9q0 251 170 434q109 117 334 117q71 0 143 -13l65 282q8 32 8 61q0 58 -24 101l241 49l-227 -999q-12 -51 -12 -110v-9q0 -82 17 -160h-206q-4 35 -4 72q0 93 26 193q-80 -121 -185 -199q-100 -74 -183 -73h-9q-151 5 -154 245zM211 230q0 -91 41 -110q4 -2 9 -1 q25 0 87 34q85 49 153 126q85 96 112 209l52 219q-91 17 -153 18q-95 0 -164 -71q-47 -49 -92 -185.5t-45 -238.5z" />
<glyph unicode="e" horiz-adv-x="819" d="M14 317q0 210 137 349q129 131 304 137h18q126 0 214 -80q104 -96 112 -274h-582q-6 -32 -6 -71q0 -113 41 -200q50 -104 137 -110h11q113 0 241 160l60 -56q-153 -183 -353 -186h-7q-134 0 -223 77q-104 90 -104 254zM232 526h367q0 104 -62 156q-45 41 -106 41h-6 q-150 -3 -193 -197z" />
<glyph unicode="f" horiz-adv-x="575" d="M-183 -458l13 59q66 6 104 66t75 234l180 814h-157l18 79h156q54 276 156 375q113 110 385 110q65 0 142 -5l-40 -149q-58 28 -146 63q-38 9 -70 9q-96 0 -153 -101q-49 -85 -96 -302h267l-19 -79h-265l-183 -828q-35 -156 -137 -251q-100 -94 -225 -94h-5z" />
<glyph unicode="g" d="M-30 -463l22 82q71 -17 134 -18q164 0 265 114q74 85 102 216l73 332q-80 -121 -185 -199q-100 -73 -183 -73h-9q-151 5 -154 245v9q0 251 170 434q109 117 337 117q135 0 313 -41l-190 -838q-90 -392 -522 -393q-79 0 -173 13zM211 230q0 -91 41 -110q4 -2 9 -2 q24 0 86 35q85 50 152 126q85 98 114 209l55 219q-93 17 -154 18q-96 0 -166 -71q-47 -49 -92 -185.5t-45 -238.5z" />
<glyph unicode="h" horiz-adv-x="983" d="M30 2l247 1072q8 32 8 62q0 57 -22 99l238 41l-165 -718q194 239 348 245h13q160 0 160 -198q0 -65 -19 -145l-68 -293q-6 -27 -6 -55q0 -61 27 -110h-236l108 469q17 77 18 126q0 90 -59 90q-46 0 -116 -54q-117 -90 -186 -242q-61 -134 -114 -389h-176z" />
<glyph unicode="i" horiz-adv-x="467" d="M30 2l135 605q8 35 8 67q0 54 -17 93l235 49l-145 -644q-6 -28 -7 -57q0 -63 27 -113h-236zM233 981q0 49 31 90t78 41q43 0 70.5 -30.5t27.5 -74.5q0 -52 -39 -98q-31 -37 -70 -37q-9 0 -19 2q-79 17 -79 107z" />
<glyph unicode="j" horiz-adv-x="466" d="M-183 -458l13 59q66 6 104 66t75 232l158 706q8 36 8 71q0 54 -17 93l234 49l-208 -931q-35 -154 -137 -251q-100 -94 -225 -94h-5zM233 981q0 49 39 94q32 37 71 37q8 0 16 -1q79 -16 79 -109q0 -50 -36 -95q-34 -37 -74 -37q-8 0 -16 1q-79 16 -79 110z" />
<glyph unicode="k" horiz-adv-x="882" d="M32 5l237 1063q8 35 8 69q0 54 -17 93l235 49l-142 -628q154 159 293 159q74 0 123 -48q45 -47 45 -114q0 -86 -104 -163q-93 -66 -228 -101q103 -151 424 -367l-196 -53q-117 87 -184 154q-120 117 -216 273l16 25q128 24 222 76q99 54 99 111v5q-6 83 -78 84 q-96 0 -199 -133q-52 -66 -90 -234l-72 -320h-176z" />
<glyph unicode="l" horiz-adv-x="467" d="M30 2l238 1065q8 35 8 69q0 54 -18 93l235 49l-247 -1106q-6 -28 -7 -57q0 -63 27 -113h-236z" />
<glyph unicode="m" horiz-adv-x="1458" d="M30 2l139 601q8 32 7 62q0 57 -22 99l240 41l-58 -247q194 239 348 245h11q143 0 143 -157q0 -38 -6 -88q194 239 348 245h11q143 0 143 -151q0 -69 -28 -192l-68 -293q-6 -27 -6 -55q0 -61 27 -110h-237l109 469q20 88 21 140q0 76 -45 76q-35 0 -100 -51 q-117 -90 -186 -244q-61 -135 -114 -390h-181l109 469q20 88 20 140q0 76 -44 76q-36 0 -105 -54q-117 -90 -186 -242q-61 -135 -114 -389h-176z" />
<glyph unicode="n" horiz-adv-x="983" d="M30 2l139 601q8 32 7 62q0 57 -22 99l240 41l-58 -247q194 239 348 245h13q160 0 160 -198q0 -65 -19 -145l-68 -293q-6 -27 -6 -55q0 -61 27 -110h-236l108 469q17 77 18 126q0 90 -59 90q-46 0 -116 -54q-117 -90 -186 -242q-61 -134 -114 -389h-176z" />
<glyph unicode="o" horiz-adv-x="866" d="M6 318v6q0 194 132 335q134 143 328 143q139 0 227 -80q99 -89 101 -253v-6q0 -193 -132 -335q-134 -144 -328 -144q-137 0 -227 81q-99 90 -101 253zM205 369q0 -35 3 -65q11 -85 54 -154q52 -85 126 -85q24 0 50 9q157 61 157 346q0 37 -3 65q-8 82 -55 153 q-55 85 -127 85q-24 0 -49 -9q-82 -32 -123 -144q-33 -90 -33 -201z" />
<glyph unicode="p" horiz-adv-x="924" d="M-91 -490l245 1085q8 35 8 68q0 55 -19 96l237 44l-65 -280q80 121 185 199q101 74 185 74h7q151 -5 154 -246v-9q0 -251 -170 -434q-108 -116 -333 -116h-4q-71 0 -144 12l-63 -282q-6 -32 -6 -61q0 -60 25 -101zM213 79q93 -17 154 -18q96 0 165 71q47 49 92.5 185.5 t45.5 238.5q0 91 -41 110q-4 2 -9 2q-24 0 -86 -35q-85 -50 -153 -126q-85 -98 -113 -209z" />
<glyph unicode="q" d="M35 236v9q0 251 170 434q109 117 337 117q135 0 313 -41l-231 -1031q-6 -30 -6 -61q0 -58 22 -103l-238 -47l164 750q-80 -121 -185 -199q-100 -73 -183 -73h-9q-151 5 -154 245zM211 230q0 -91 41 -110q4 -2 9 -2q24 0 86 35q85 50 152 126q85 98 114 209q14 60 55 219 q-93 17 -154 18q-96 0 -166 -71q-47 -49 -92 -185.5t-45 -238.5z" />
<glyph unicode="r" horiz-adv-x="759" d="M30 2l139 612q8 32 7 60q0 55 -22 88l237 46l-60 -253q96 132 220 203q109 63 211 63q37 0 67 -8l-43 -154q-71 36 -129 36q-71 0 -150 -59q-203 -150 -301 -634h-176z" />
<glyph unicode="s" horiz-adv-x="661" d="M-65 30l33 139q105 -119 262 -119h5q150 3 149 95q0 95 -138 235q-82 83 -112 126q-40 58 -40 111q0 6 1 12q13 174 294 174h3h6q132 0 272 -42l-37 -143q-85 120 -244 122h-8q-107 0 -107 -74q0 -82 150 -220q137 -128 137 -249q0 -85 -81 -145q-91 -68 -239 -68 q-120 0 -306 46z" />
<glyph unicode="t" horiz-adv-x="606" d="M35 710l19 78h130q2 15 2 28q0 52 -25 84l239 45l-36 -157h290l-19 -78h-290l-90 -395q-17 -72 -17 -120q0 -86 69 -86h3q46 2 114 56q35 28 148 139l-33 -129q-184 -181 -309 -181q-83 0 -128 72q-34 58 -34 145q0 62 12 117l89 382h-134z" />
<glyph unicode="u" horiz-adv-x="956" d="M63 195q0 61 16 128l64 277q8 33 8 66q0 54 -19 93l237 46l-117 -499q-17 -77 -17 -126q0 -90 58 -90q46 0 117 53q117 88 185 246q63 137 115 392h177l-126 -546q-11 -46 -11 -95q0 -77 25 -140h-206q5 102 14 228q-194 -239 -348 -245h-12q-160 0 -160 212z" />
<glyph unicode="v" horiz-adv-x="756" d="M-2 788h240l134 -545l346 545h120q-60 -52 -123 -153l-406 -651h-55l-153 623q-24 98 -103 181z" />
<glyph unicode="w" horiz-adv-x="1282" d="M-2 788h240l134 -545l346 545h56l133 -545l347 545h120q-60 -52 -123 -153l-407 -651h-55l-135 552l-345 -552h-55l-153 623q-24 98 -103 181z" />
<glyph unicode="x" horiz-adv-x="850" d="M-72 0q68 43 157 132l251 252l-98 216q-36 79 -128 189h238l120 -269l266 269h143q-68 -43 -157 -132l-216 -217l112 -249q33 -72 131 -191h-238l-137 304l-301 -304h-143z" />
<glyph unicode="y" horiz-adv-x="956" d="M-3 -463l22 82q71 -17 134 -18q164 0 264 114q74 85 103 216l68 305q-195 -246 -353 -253h-12q-160 0 -160 212q0 61 16 128l64 277q8 33 8 66q0 54 -19 93l237 46l-117 -499q-17 -77 -17 -126q0 -90 58 -90q46 0 117 53q117 88 185 246q63 137 115 392h177l-192 -864 q-87 -392 -523 -393q-80 0 -175 13z" />
<glyph unicode="z" horiz-adv-x="765" d="M-47 57l512 652h-169q-82 0 -120 -8q-49 -9 -137 -50l63 138h596l16 -52l-519 -660h222q87 0 122 8q54 11 140 60l-68 -143h-643z" />
<glyph unicode="{" horiz-adv-x="595" d="M57 545v21q60 74 60 146q0 25 -9 67.5t-9 63.5q0 195 53.5 270.5t186.5 80.5v-38q-87 -11 -87 -127q0 -25 5.5 -87.5t5.5 -95.5q0 -164 -145 -291q80 -71 112.5 -135t32.5 -157q0 -33 -5.5 -95t-5.5 -89q0 -117 87 -128v-36q-131 5 -185.5 80.5t-54.5 270.5q0 20 9 63.5 t9 67.5q0 74 -60 148z" />
<glyph unicode="|" horiz-adv-x="663" d="M161 -109l245 1324h114l-243 -1324h-116z" />
<glyph unicode="}" horiz-adv-x="554" d="M255 -49q87 11 87 128q0 27 -5.5 89t-5.5 95q0 93 32 157t113 135q-145 128 -145 291q0 33 5.5 95.5t5.5 87.5q0 117 -87 127v38q132 -5 186 -80.5t54 -270.5q0 -20 -9 -63t-9 -68q0 -72 60 -146v-21q-60 -74 -60 -148q0 -24 9 -67t9 -64q0 -195 -54.5 -270.5 t-185.5 -80.5v36z" />
<glyph unicode="~" d="M57 454q112 91 223 91q68 0 184 -44t169 -47q98 -6 186 66l41 -71q-112 -93 -225 -93q-68 0 -180 43q-118 46 -170 48q-96 6 -184 -64z" />
<glyph horiz-adv-x="1024" />
<glyph unicode="&#xa1;" horiz-adv-x="552" d="M49 -302q0 9 3 18l249 801h71q-22 -96 -109 -843q-3 -28 -34 -47t-67 -19q-39 0 -76 26t-37 64zM269 693q0 52 39 98t89 35q79 -17 79 -108q0 -49 -29 -88q-33 -42 -80 -42q-43 0 -70.5 30.5t-27.5 74.5z" />
<glyph unicode="&#xa2;" horiz-adv-x="1008" d="M57 356q9 176 126 293q107 107 249 115l19 88h69l-19 -88q80 -1 206 -20l-34 -144q-90 87 -186 98l-128 -588q19 -5 36 -4q82 0 193 127l48 -47q-145 -158 -294 -158l-19 -89h-69l20 96q-101 19 -159 96q-66 85 -58 225zM217 375q0 -32 4 -61q5 -44 33 -101 q24 -47 44 -66l118 549q-198 -33 -199 -321z" />
<glyph unicode="&#xa3;" horiz-adv-x="1231" d="M-33 -3l60 109q137 3 200 73t113 283l22 93h-211l18 85h211l41 174q36 151 150 232.5t289 72.5q124 -7 241 -65l-17 -126q-104 112 -241 104q-93 -5 -140 -35q-69 -46 -96 -165l-45 -192h208l-15 -85h-208l-19 -78q-55 -225 -241 -375q219 -55 308 -55q228 0 440 203 l-9 -78q-172 -222 -512 -222q-102 0 -288.5 23.5t-258.5 23.5z" />
<glyph unicode="&#xa4;" horiz-adv-x="1134" d="M-19 447l68 95h79q3 25 12 76h-124l67 94h87q112 284 397 389q85 32 183 32q148 0 348 -76l-35 -180q-159 176 -323 177q-79 0 -162 -39q-192 -90 -247 -303h650l-67 -94h-599q-2 -14 -5 -76h574l-68 -95h-501q19 -134 98 -236q102 -132 261 -132q128 0 265 115l63 -65 q-178 -148 -384 -145q-224 3 -352 128q-124 120 -138 335h-147z" />
<glyph unicode="&#xa5;" horiz-adv-x="968" d="M-6 1106h256l205 -514l449 514h161q-74 -50 -80 -55q-36 -28 -79 -77l-381 -440h237l-15 -72h-267l-22 -109h265l-14 -73h-266l-29 -135q-24 -117 -11 -178h-238q52 83 76 191l27 122h-268l14 73h268q6 25 24 109h-268l16 72h231q-44 113 -153 392q-22 58 -50 92z M11965 -147zM12104 -147z" />
<glyph unicode="&#xa6;" horiz-adv-x="663" d="M170 -107v460h110v-460h-110zM170 753v463h110v-463h-110z" />
<glyph unicode="&#xa7;" horiz-adv-x="850" d="M-129 -236l28 143q63 -49 93 -66q57 -33 107 -41q38 -6 74 -6q117 0 185 58q61 52 61 131q0 65 -44 123q-27 35 -115 119t-156 169q-39 50 -39 116q0 69 41.5 127t117.5 81q-80 71 -81 171q0 69 42 125t117 78q95 28 186 28q98 0 308 -46l-26 -149q-159 120 -312 112 q-151 -8 -151 -125q0 -43 27 -74q49 -58 172 -175q87 -83 134 -162q33 -54 33 -117q0 -137 -133 -225q54 -65 54 -145q0 -76 -49 -148q-102 -150 -356 -150q-142 0 -318 48zM228 539q0 -43 27 -74q50 -60 115 -122q90 -84 95 -89q33 46 33 102q0 65 -44 123q-20 27 -159 162 q-66 -33 -67 -102z" />
<glyph unicode="&#xa8;" horiz-adv-x="956" d="M342 1005q0 41 29 76.5t69 27.5q60 -11 59 -82q0 -39 -29.5 -75.5t-67.5 -28.5q-60 11 -60 82zM635 1005q0 41 29 76.5t69 27.5q60 -11 59 -82q0 -39 -29.5 -75.5t-67.5 -28.5q-60 11 -60 82z" />
<glyph unicode="&#xa9;" horiz-adv-x="1326" d="M110 548q0 244 172.5 416.5t416.5 172.5t417 -172.5t173 -416.5t-172.5 -416.5t-417.5 -172.5q-244 0 -416.5 172.5t-172.5 416.5zM205 548q0 -205 145 -349.5t349 -144.5q205 0 350 144.5t145 349.5t-145 350t-350 145t-349.5 -145t-144.5 -350zM367 545q0 139 99 243 q104 110 256 110q106 0 214 -60l14 -165q-121 140 -228 140q-124 0 -190 -87q-55 -72 -48 -170q9 -129 83 -198q66 -60 155 -60q110 2 214 108l25 -96q-113 -98 -238 -97q-109 0 -195 50q-101 58 -142 173q-19 52 -19 109z" />
<glyph unicode="&#xaa;" horiz-adv-x="512" d="M36 829q-3 129 85 222q54 58 169 58q66 0 156 -20l-55 -240q-14 -61 3 -139h-104q-6 61 11 133q-90 -140 -188 -137q-74 2 -77 123zM124 826q0 -46 21 -56q20 -9 85 43q74 61 95 142l28 110q-47 8 -77 8q-50 0 -84 -35q-24 -25 -46 -93t-22 -119z" />
<glyph unicode="&#xab;" horiz-adv-x="871" d="M57 386q0 28 26 49l352 268q21 15 34 -4q11 -16 -6 -33l-272 -275l152 -268q11 -20 -6 -35q-20 -17 -36 0l-233 270q-11 13 -11 28zM293 386q0 28 27 49l351 268q22 15 35 -4q11 -16 -7 -33l-272 -275l153 -268q11 -20 -7 -35q-20 -17 -36 0l-233 270q-11 13 -11 28z" />
<glyph unicode="&#xac;" horiz-adv-x="1121" d="M65 525v89h819v-376h-95v287h-724z" />
<glyph unicode="&#xad;" horiz-adv-x="850" d="M96 354l63 153q285 0 347 5q136 9 204 55l-66 -156q-287 0 -346 -5q-137 -9 -202 -52z" />
<glyph unicode="&#xae;" horiz-adv-x="1326" d="M104 548q0 244 172.5 416.5t416.5 172.5t416.5 -172.5t172.5 -416.5t-172.5 -416.5t-416.5 -172.5t-416.5 172.5t-172.5 416.5zM198 548q0 -205 145 -349.5t350 -144.5t350 144.5t145 349.5t-145 350t-350 145t-350 -145t-145 -350zM436 238q24 52 24 107v441 q0 58 -24 112h166q298 0 298 -186q0 -65 -54 -116t-123 -62q54 -68 107 -134q73 -80 194 -162h-189q-74 66 -120 129q-38 50 -115 183l16 19q50 -6 102 28q65 41 65 113q0 60 -52 98q-57 41 -158 38v-501q0 -55 26 -107h-163z" />
<glyph unicode="&#xaf;" horiz-adv-x="1024" d="M173 892v63h489v-63h-489z" />
<glyph unicode="&#xb0;" horiz-adv-x="356" d="M32 981q0 57 40 97.5t97 40.5t97 -40.5t40 -97.5t-40.5 -97t-96.5 -40q-57 0 -97 40.5t-40 96.5zM93 981q0 -30 23 -52.5t53 -22.5q32 0 53.5 22.5t21.5 52.5q0 32 -23 54t-52 22q-30 0 -53 -22t-23 -54z" />
<glyph unicode="&#xb1;" horiz-adv-x="1121" d="M61 -14v107h820v-107h-820zM61 523v107h355v356h109v-356h356v-107h-356v-354h-109v354h-355z" />
<glyph unicode="&#xb2;" horiz-adv-x="587" d="M71 679l255 214q58 49 58 98q0 60 -58 60q-49 0 -83 -22q-25 -14 -96 -79l23 115q66 47 169 47q175 0 175 -104q0 -79 -106 -157l-198 -148h100q131 0 202 44l-55 -117h-378z" />
<glyph unicode="&#xb3;" horiz-adv-x="608" d="M79 532l23 100q72 -54 144 -54q69 0 116.5 46t48.5 104q2 60 -25 98q-33 44 -98 40l14 65q65 6 104 50q35 39 35 86q0 69 -66 70q-91 2 -175 -72l24 90q74 46 159 45q79 0 133 -38t54 -99q0 -71 -126 -159q107 -57 107 -156t-92 -167.5t-232 -68.5q-72 0 -148 20z" />
<glyph unicode="&#xb4;" d="M310 911q-9 9 0 30q82 106 182 226q13 13 39 15q27 0 41 -14.5t12 -39.5q0 -25 -14 -39q-95 -72 -227 -178q-5 -3 -15 -4q-11 0 -18 4z" />
<glyph unicode="&#xb6;" horiz-adv-x="893" d="M54 704q0 156 102 262q134 137 395 137h281q-46 -61 -66 -156l-248 -1105h-66l257 1195h-52l-268 -1195h-66l139 650q-28 -9 -98 -10q-121 0 -202 41q-109 57 -108 181zM271 733q0 -68 46 -125q49 -61 116 -61q20 0 43 6l104 484q-156 2 -238 -93q-72 -82 -71 -211z" />
<glyph unicode="&#xb7;" horiz-adv-x="450" d="M126 474q0 41 31.5 72t72.5 31t72.5 -31t31.5 -72t-31.5 -71.5t-72.5 -30.5t-72.5 30.5t-31.5 71.5z" />
<glyph unicode="&#xb8;" horiz-adv-x="738" d="M113 -247l35 56q61 -50 150 -50q68 0 61 47q-6 60 -123 60q-20 0 -44 -3l93 194l80 -18l-58 -113q72 -8 115 -46q38 -34 35 -80q-3 -44 -44 -75.5t-107 -31.5q-88 0 -193 60z" />
<glyph unicode="&#xb9;" horiz-adv-x="326" d="M61 570l90 369q3 16 -11 16q-16 0 -53 -24l19 65l211 126l-90 -367q-9 -39 6 -89z" />
<glyph unicode="&#xba;" horiz-adv-x="437" d="M28 868q0 99 66.5 171t163.5 72q68 0 114 -40q50 -45 50 -127q0 -99 -67 -171t-163 -72q-69 0 -113 39q-50 46 -51 128zM128 895q0 -17 1 -33q16 -120 90 -120q58 0 87 74q23 62 15 136q-5 41 -26 77q-28 43 -67 42q-11 0 -23 -4q-77 -28 -77 -172z" />
<glyph unicode="&#xbb;" horiz-adv-x="871" d="M95 90q-11 16 6 33l272 276l-152 267q-11 20 6 35q20 17 36 0l233 -269q11 -13 11 -29q0 -28 -27 -49l-351 -267q-22 -16 -34 3zM331 90q-11 16 6 33l273 276l-153 267q-11 20 6 35q20 17 36 0l234 -269q11 -13 11 -29q0 -28 -27 -49l-352 -267q-22 -16 -34 3z" />
<glyph unicode="&#xbc;" horiz-adv-x="1220" d="M121 44l923 1068l71 -58l-918 -1067zM246 570l90 369q3 16 -11 16q-16 0 -54 -24l19 65l211 126l-90 -367q-9 -39 6 -89zM479 72l518 418l29 -47l-85 -350h63l-18 -73h-63l-12 -50q-9 -38 6 -88l-172 -96l57 234h-306zM605 93h214l55 216z" />
<glyph unicode="&#xbd;" horiz-adv-x="1220" d="M121 43l923 1071l70 -62l-917 -1066zM246 570l90 369q3 16 -11 16q-16 0 -54 -24l19 65l211 126l-90 -367q-9 -39 6 -89zM662 49l255 214q58 49 58 98q0 60 -58 60q-49 0 -84 -22q-25 -14 -96 -79l24 115q66 47 168 47q175 0 175 -104q0 -79 -105 -157l-199 -149h101 q131 0 202 45l-55 -117h-378z" />
<glyph unicode="&#xbe;" horiz-adv-x="1220" d="M79 532l23 100q72 -54 144 -54q69 0 116.5 46t48.5 104q2 60 -25 98q-33 44 -98 40l14 65q65 6 104 50q35 39 35 86q0 69 -66 70q-91 2 -175 -72l24 90q74 46 159 45q79 0 133 -38t54 -99q0 -71 -126 -159q107 -57 107 -156t-92 -167.5t-232 -68.5q-72 0 -148 20zM213 47 l923 1076l71 -58l-919 -1076zM575 72l518 418l29 -47l-85 -350h63l-18 -73h-63l-12 -50q-9 -38 6 -88l-172 -96l57 234h-306zM701 93h214l55 216z" />
<glyph unicode="&#xbf;" horiz-adv-x="842" d="M24 -156q0 107 102 208q58 46 117 90q124 98 176 168q61 85 66 188l85 55q0 -202 -171 -388q-66 -71 -133 -140q-54 -71 -60 -162q-5 -65 35 -117q44 -58 118 -63q91 -5 172 54q49 37 137 139l-50 -183q-106 -76 -268 -77q-120 -2 -205 39q-96 47 -117 142q-5 24 -4 47z M469 696q0 52 39 98t89 35q79 -17 79 -107q0 -49 -29 -89q-33 -42 -80 -42q-43 0 -70.5 30.5t-27.5 74.5z" />
<glyph unicode="&#xc0;" horiz-adv-x="949" d="M-246 3q93 83 109 99q32 33 66 87l596 931h63l225 -917q16 -65 36 -101q1 -1 66 -99h-244l-96 397h-408l-257 -397h-156zM222 487h331l-90 373zM402 1440q0 25 14 39t41 14q27 -2 41 -15t179 -226q8 -17 -1 -31q-6 -3 -16 -3q-9 0 -14 3q-106 82 -230 180q-14 14 -14 39z " />
<glyph unicode="&#xc1;" horiz-adv-x="949" d="M-246 3q93 83 109 99q32 33 66 87l596 931h63l225 -917q16 -65 36 -101q1 -1 66 -99h-244l-96 397h-408l-257 -397h-156zM222 487h331l-90 373zM447 1221q-9 14 0 31q82 106 182 227q13 13 39 14q27 0 41.5 -14t12.5 -39q0 -25 -15 -39q-95 -71 -227 -179q-14 -13 -33 -1 z" />
<glyph unicode="&#xc2;" horiz-adv-x="949" d="M-246 3q93 83 109 99q32 33 66 87l596 931h63l225 -917q16 -65 36 -101q1 -1 66 -99h-244l-96 397h-408l-257 -397h-156zM222 487h331l-90 373zM321 1218q-11 14 4 34q22 16 204 188q32 28 68 28q39 0 60 -30q55 -84 126 -190q11 -24 -8 -35q-19 -16 -33 2 q-44 44 -161 160q-91 -66 -227 -159q-24 -17 -33 2z" />
<glyph unicode="&#xc3;" horiz-adv-x="949" d="M-246 3q93 83 109 99q32 33 66 87l596 931h63l225 -917q16 -65 36 -101q1 -1 66 -99h-244l-96 397h-408l-257 -397h-156zM222 487h331l-90 373zM358 1260q0 17 11 33q49 72 129 73q63 0 110 -46q30 -28 65 -28q47 0 86 41q9 9 19 9q27 0 27 -38q0 -13 -8 -26 q-44 -74 -134 -74q-63 0 -107 44q-32 32 -68 31q-32 0 -65.5 -26t-41.5 -26q-24 0 -23 33z" />
<glyph unicode="&#xc4;" horiz-adv-x="949" d="M-246 3q93 83 109 99q32 33 66 87l596 931h63l225 -917q16 -65 36 -101q1 -1 66 -99h-244l-96 397h-408l-257 -397h-156zM222 487h331l-90 373zM370 1311q0 38 26 72.5t62 28.5q55 -11 56 -81q0 -38 -26 -71q-28 -38 -64 -30q-54 11 -54 81zM633 1311q0 38 27 73t63 28 q54 -11 54 -79q0 -38 -26.5 -73.5t-62.5 -29.5q-55 11 -55 81z" />
<glyph unicode="&#xc5;" horiz-adv-x="949" d="M-246 3q93 83 109 99q32 33 66 87l596 931h63l225 -917q16 -65 36 -101q1 -1 66 -99h-244l-96 397h-408l-257 -397h-156zM222 487h331l-90 373zM451 1355q0 54 38.5 94t98.5 40q55 0 96 -37t41 -94q0 -55 -39 -94.5t-98 -39.5q-55 0 -96 37t-41 94zM512 1355 q0 -30 23 -49.5t53 -19.5q33 0 54 21t21 51t-22.5 49.5t-52.5 19.5q-33 0 -54.5 -21t-21.5 -51z" />
<glyph unicode="&#xc6;" horiz-adv-x="1357" d="M-187 0q68 57 85 72q32 30 77 89l750 942h636l36 -133q-85 46 -230 46h-225l-74 -331h406l-20 -85h-405l-121 -513h263q113 0 164 9q72 14 113 57l-61 -153h-736q80 98 104 205l44 195h-340l-318 -400h-148zM347 487h291l113 504z" />
<glyph unicode="&#xc7;" horiz-adv-x="1022" d="M30 503q0 167 105 329q124 191 336 269q85 32 183 32q148 0 348 -76l-35 -180q-159 176 -323 177q-79 0 -162 -39q-287 -134 -266 -536q6 -132 86 -249q104 -151 276 -151q128 0 265 115l63 -65q-175 -145 -392 -145q-41 0 -67 5l-31 -63q72 -8 115 -46q38 -35 35 -80 q-3 -44 -44.5 -75.5t-107.5 -31.5q-88 0 -192 60l35 56q61 -50 149 -50q68 0 62 47q-6 60 -123 60q-20 0 -44 -3l68 140q-162 41 -250.5 171t-88.5 329z" />
<glyph unicode="&#xc8;" horiz-adv-x="869" d="M-50 0q82 101 105 206l164 727q6 28 6 56q0 61 -25 115h641l36 -132q-85 46 -230 46h-225l-74 -331h411l-20 -87h-410l-121 -513h263q222 0 282 69l-68 -156h-735zM421 1437q0 25 14 39t41 14q27 -2 41 -15t179 -226q8 -17 -1 -31q-6 -3 -16 -3q-9 0 -14 3 q-107 82 -230 179q-14 14 -14 40z" />
<glyph unicode="&#xc9;" horiz-adv-x="869" d="M-50 0q82 101 105 206l164 727q6 28 6 56q0 61 -25 115h641l36 -132q-85 46 -230 46h-225l-74 -331h411l-20 -87h-410l-121 -513h263q222 0 282 69l-68 -156h-735zM510 1221q-9 14 0 31q82 106 182 227q13 13 39 14q27 0 41.5 -14t12.5 -39q0 -25 -15 -39 q-95 -71 -226 -179q-14 -13 -34 -1z" />
<glyph unicode="&#xca;" horiz-adv-x="869" d="M-50 0q82 101 105 206l164 727q6 28 6 56q0 61 -25 115h641l36 -132q-85 46 -230 46h-225l-74 -331h411l-20 -87h-410l-121 -513h263q222 0 282 69l-68 -156h-735zM321 1218q-11 14 4 34q22 16 204 188q32 28 68 28q39 0 60 -30q55 -84 126 -190q11 -24 -8 -35 q-19 -16 -33 2q-44 44 -161 160q-91 -66 -227 -159q-24 -17 -33 2z" />
<glyph unicode="&#xcb;" horiz-adv-x="869" d="M-50 0q82 101 105 206l164 727q6 28 6 56q0 61 -25 115h641l36 -132q-85 46 -230 46h-225l-74 -331h411l-20 -87h-410l-121 -513h263q222 0 282 69l-68 -156h-735zM370 1311q0 38 26 72.5t62 28.5q55 -11 56 -81q0 -38 -26 -71q-28 -38 -64 -30q-54 11 -54 81zM633 1311 q0 38 27 73t63 28q54 -11 54 -79q0 -38 -26.5 -73.5t-62.5 -29.5q-55 11 -55 81z" />
<glyph unicode="&#xcc;" horiz-adv-x="485" d="M-38 2q80 98 104 204l164 728q6 27 6 57q0 61 -25 113h240l-248 -1102h-241zM239 1440q-2 25 12.5 39t41.5 14q27 -2 41 -15t180 -226q9 -17 0 -31q-19 -11 -34 1q-104 80 -226 179q-14 14 -15 39z" />
<glyph unicode="&#xcd;" horiz-adv-x="485" d="M-38 2q80 98 104 204l164 728q6 27 6 57q0 61 -25 113h240l-248 -1102h-241zM221 1221q-9 14 0 31q82 106 181 227q13 13 39 14q27 0 41.5 -14t12.5 -39q0 -25 -15 -39q-95 -71 -226 -179q-14 -13 -33 -1z" />
<glyph unicode="&#xce;" horiz-adv-x="485" d="M-38 2q80 98 104 204l164 728q6 27 6 57q0 61 -25 113h240l-248 -1102h-241zM131 1218q-11 14 3 34q22 16 205 188q32 28 67 28q39 0 60 -30q55 -84 126 -190q11 -24 -8 -35q-19 -16 -33 2l-160 160q-91 -66 -227 -159q-24 -17 -33 2z" />
<glyph unicode="&#xcf;" horiz-adv-x="485" d="M-38 2q80 98 104 204l164 728q6 27 6 57q0 61 -25 113h240l-248 -1102h-241zM175 1311q0 38 26 72.5t62 28.5q55 -11 55 -81q0 -38 -25 -71q-29 -38 -65 -30q-54 11 -53 81zM438 1311q0 38 27 73t63 28q54 -11 53 -79q0 -38 -26 -73.5t-62 -29.5q-55 11 -55 81z" />
<glyph unicode="&#xd0;" horiz-adv-x="1220" d="M-49 0q79 98 104 206l66 292h-137l18 85h138l79 350q6 28 6 56q0 61 -25 115h444q262 0 407 -130q140 -127 140 -344q0 -172 -93 -318q-117 -184 -356 -277q-90 -35 -233 -35h-558zM214 87h270q224 0 369.5 145t145.5 370q0 161 -85 271q-109 145 -336 145h-156l-97 -435 h319l-15 -85h-323z" />
<glyph unicode="&#xd1;" horiz-adv-x="1209" d="M-50 0q57 93 72 165l216 969h60l616 -880l192 850h126q-47 -76 -68 -165l-217 -974h-60l-616 881l-191 -846h-130zM526 1260q0 17 11 33q49 72 129 73q63 0 111 -46q30 -28 64 -28q47 0 87 41q9 9 19 9q27 0 27 -38q0 -13 -8 -26q-44 -74 -134 -74q-63 0 -107 44 q-32 32 -68 31q-32 0 -65.5 -26t-41.5 -26q-24 0 -24 33z" />
<glyph unicode="&#xd2;" horiz-adv-x="1195" d="M30 498q0 232 178 427q189 211 443 206q194 -3 321 -101q173 -132 173 -411q0 -233 -171 -425q-186 -206 -449 -208q-189 -2 -320 97q-175 134 -175 415zM213 573q-14 -186 78 -330q104 -164 289 -164q135 0 239 108q125 127 144 357q11 143 -49 274q-83 183 -278 217 q-20 3 -41 3q-132 0 -239 -109q-126 -129 -143 -356zM547 1440q0 25 14 39t41 14q27 -2 41 -15t179 -226q8 -17 -1 -31q-6 -3 -16 -3q-9 0 -14 3q-107 82 -230 180q-14 14 -14 39z" />
<glyph unicode="&#xd3;" horiz-adv-x="1195" d="M30 498q0 232 178 427q189 211 443 206q194 -3 321 -101q173 -132 173 -411q0 -233 -171 -425q-186 -206 -449 -208q-189 -2 -320 97q-175 134 -175 415zM213 573q-14 -186 78 -330q104 -164 289 -164q135 0 239 108q125 127 144 357q11 143 -49 274q-83 183 -278 217 q-20 3 -41 3q-132 0 -239 -109q-126 -129 -143 -356zM573 1221q-9 14 0 31q82 106 182 227q13 13 39 14q27 0 41.5 -14t12.5 -39q0 -25 -15 -39q-95 -71 -226 -179q-14 -13 -34 -1z" />
<glyph unicode="&#xd4;" horiz-adv-x="1195" d="M30 498q0 232 178 427q189 211 443 206q194 -3 321 -101q173 -132 173 -411q0 -233 -171 -425q-186 -206 -449 -208q-189 -2 -320 97q-175 134 -175 415zM213 573q-14 -186 78 -330q104 -164 289 -164q135 0 239 108q125 127 144 357q11 143 -49 274q-83 183 -278 217 q-20 3 -41 3q-132 0 -239 -109q-126 -129 -143 -356zM460 1218q-11 14 3 34q22 17 205 188q32 28 68 28q39 0 60 -30q55 -84 126 -190q11 -24 -8 -35q-19 -16 -33 2q-46 44 -161 160q-91 -66 -227 -159q-24 -17 -33 2z" />
<glyph unicode="&#xd5;" horiz-adv-x="1195" d="M30 498q0 232 178 427q189 211 443 206q194 -3 321 -101q173 -132 173 -411q0 -233 -171 -425q-186 -206 -449 -208q-189 -2 -320 97q-175 134 -175 415zM213 573q-14 -186 78 -330q104 -164 289 -164q135 0 239 108q125 127 144 357q11 143 -49 274q-83 183 -278 217 q-20 3 -41 3q-132 0 -239 -109q-126 -129 -143 -356zM496 1260q0 17 11 33q49 72 129 73q63 0 111 -46q30 -28 64 -28q47 0 87 41q9 9 19 9q27 0 27 -38q0 -13 -8 -26q-44 -74 -134 -74q-63 0 -107 44q-32 32 -68 31q-32 0 -65.5 -26t-41.5 -26q-24 0 -24 33z" />
<glyph unicode="&#xd6;" horiz-adv-x="1195" d="M30 498q0 232 178 427q189 211 443 206q194 -3 321 -101q173 -132 173 -411q0 -233 -171 -425q-186 -206 -449 -208q-189 -2 -320 97q-175 134 -175 415zM213 573q-14 -186 78 -330q104 -164 289 -164q135 0 239 108q125 127 144 357q11 143 -49 274q-83 183 -278 217 q-20 3 -41 3q-132 0 -239 -109q-126 -129 -143 -356zM532 1339q0 38 26 72.5t63 28.5q55 -11 55 -79q0 -39 -27 -74t-63 -27q-54 11 -54 79zM796 1339q0 38 26.5 73.5t62.5 27.5q54 -11 54 -79q0 -38 -25 -71q-27 -38 -63 -30q-55 6 -55 79z" />
<glyph unicode="&#xd7;" horiz-adv-x="1121" d="M143 693l78 77l252 -252l252 252l75 -75l-252 -252l251 -251l-77 -77l-251 250l-250 -250l-76 76l250 250z" />
<glyph unicode="&#xd8;" horiz-adv-x="1195" d="M-28 19l151 148q-93 126 -93 331q0 232 178 427q189 211 443 206q211 -3 340 -116l132 129l55 -55l-132 -131q99 -128 99 -339q0 -233 -171 -425q-186 -205 -449 -208q-213 -2 -349 121q-39 -38 -148 -145zM213 573q-11 -142 47 -272l608 594q-104 143 -273 143 q-132 0 -239 -109q-126 -129 -143 -356zM299 228q104 -150 281 -149q135 0 239 108q125 127 144 357q13 148 -52 282z" />
<glyph unicode="&#xd9;" horiz-adv-x="1123" d="M77 427q0 96 27 211l68 296q6 27 6 57q0 58 -20 113h234l-113 -518q-19 -83 -19 -154q0 -175 117 -281q71 -65 185 -64q124 0 224 64q124 82 161 248l154 705h128q-47 -72 -70 -170l-119 -539q-49 -221 -197 -330q-124 -95 -293 -95q-88 0 -170 27q-302 99 -303 430z M595 1440q0 25 14.5 39t41.5 14q27 -2 41 -15t179 -226q8 -17 -1 -31q-6 -3 -16 -3q-9 0 -14 3q-107 82 -230 180q-14 14 -15 39z" />
<glyph unicode="&#xda;" horiz-adv-x="1123" d="M77 427q0 96 27 211l68 296q6 27 6 57q0 58 -20 113h234l-113 -518q-19 -83 -19 -154q0 -175 117 -281q71 -65 185 -64q124 0 224 64q124 82 161 248l154 705h128q-47 -72 -70 -170l-119 -539q-49 -221 -197 -330q-124 -95 -293 -95q-88 0 -170 27q-302 99 -303 430z M633 1221q-9 14 0 31q82 106 181 227q13 13 40 14q27 0 41 -14t12 -39q0 -25 -14 -39q-95 -71 -227 -179q-14 -13 -33 -1z" />
<glyph unicode="&#xdb;" horiz-adv-x="1123" d="M77 427q0 96 27 211l68 296q6 27 6 57q0 58 -20 113h234l-113 -518q-19 -83 -19 -154q0 -175 117 -281q71 -65 185 -64q124 0 224 64q124 82 161 248l154 705h128q-47 -72 -70 -170l-119 -539q-49 -221 -197 -330q-124 -95 -293 -95q-88 0 -170 27q-302 99 -303 430z M498 1218q-11 14 3 34q22 16 205 188q32 28 68 28q39 0 59 -30q55 -84 126 -190q11 -24 -7 -35q-19 -16 -34 2q-46 44 -160 160q-91 -66 -227 -159q-24 -17 -33 2z" />
<glyph unicode="&#xdc;" horiz-adv-x="1123" d="M77 427q0 96 27 211l68 296q6 27 6 57q0 58 -20 113h234l-113 -518q-19 -83 -19 -154q0 -175 117 -281q71 -65 185 -64q124 0 224 64q124 82 161 248l154 705h128q-47 -72 -70 -170l-119 -539q-49 -221 -197 -330q-124 -95 -293 -95q-88 0 -170 27q-302 99 -303 430z M564 1339q0 38 26 72.5t62 28.5q55 -11 55 -79q0 -39 -26.5 -74t-62.5 -27q-54 11 -54 79zM827 1339q0 38 27 73.5t63 27.5q54 -11 53 -79q0 -38 -25 -71q-27 -38 -63 -30q-55 6 -55 79z" />
<glyph unicode="&#xdd;" horiz-adv-x="960" d="M-112 -290q162 66 242 116.5t127 123.5l69 107l-206 847q-22 91 -96 202l238 -2l207 -860l552 860h154q-88 -79 -105 -99q-32 -33 -66 -87l-596 -932q-145 -228 -252 -323zM561 1189q-9 14 0 32q82 106 181 227q13 13 39 14q27 0 41.5 -14.5t12.5 -39.5q0 -25 -14 -39 q-95 -71 -227 -178q-14 -13 -33 -2z" />
<glyph unicode="&#xde;" horiz-adv-x="879" d="M-38 2q80 98 104 204l164 728q6 27 6 57q0 61 -25 113h240l-57 -264q195 0 274 -35q179 -79 181 -252q0 -126 -109.5 -206.5t-266.5 -80.5q-91 0 -180 30l58 63q55 -19 106 -19q91 0 150 62q54 55 55 127q3 110 -59 169q-71 66 -226 64l-174 -759z" />
<glyph unicode="&#xdf;" horiz-adv-x="927" d="M-115 0q52 79 76 186l118 529h-47l18 79h46l13 58q35 162 108 232q95 90 309 107q131 9 246 -46q145 -69 145 -209q0 -112 -87 -233q-46 55 -173 58q-117 3 -117 -87q0 -91 148 -228q137 -128 138 -249q0 -85 -81 -145q-91 -68 -239 -68q-120 0 -306 46l33 139 q107 -121 266 -119q150 3 150 95q0 95 -139 235q-82 83 -111 126q-44 65 -40 123q6 95 103 143q87 46 223 46q57 0 117 -8q32 60 31 112q0 91 -93 146q-79 47 -179 47q-24 0 -44 -3q-90 -14 -134 -52q-65 -54 -93 -184l-156 -703q-25 -110 -11 -173h-238z" />
<glyph unicode="&#xe0;" d="M35 236q-3 257 170 443q109 117 337 117q135 0 313 -41l-110 -478q-13 -55 -12 -119q0 -82 17 -158h-206q-14 124 22 263q-80 -121 -185 -198.5t-192 -73.5q-151 5 -154 245zM211 230q0 -91 41 -110q20 -9 95 33q85 50 152 126q85 98 114 209l55 219q-93 17 -154 18 q-96 0 -166 -71q-47 -49 -92 -185.5t-45 -238.5zM421 1128q0 25 14 39.5t41 14.5q27 -2 41 -15t179 -226q8 -17 -1 -32q-6 -3 -16 -3q-9 0 -14 3q-107 82 -230 180q-14 14 -14 39z" />
<glyph unicode="&#xe1;" d="M35 236q-3 257 170 443q109 117 337 117q135 0 313 -41l-110 -478q-13 -55 -12 -119q0 -82 17 -158h-206q-14 124 22 263q-80 -121 -185 -198.5t-192 -73.5q-151 5 -154 245zM211 230q0 -91 41 -110q20 -9 95 33q85 50 152 126q85 98 114 209l55 219q-93 17 -154 18 q-96 0 -166 -71q-47 -49 -92 -185.5t-45 -238.5zM466 909q-9 14 0 32q82 106 181 226q13 13 40 15q27 0 41 -14.5t12 -39.5q0 -25 -14 -39q-95 -72 -227 -178q-13 -9 -33 -2z" />
<glyph unicode="&#xe2;" d="M35 236q-3 257 170 443q109 117 337 117q135 0 313 -41l-110 -478q-13 -55 -12 -119q0 -82 17 -158h-206q-14 124 22 263q-80 -121 -185 -198.5t-192 -73.5q-151 5 -154 245zM211 230q0 -91 41 -110q20 -9 95 33q85 50 152 126q85 98 114 209l55 219q-93 17 -154 18 q-96 0 -166 -71q-47 -49 -92 -185.5t-45 -238.5zM326 931q-11 14 3 35q22 17 205 187q32 28 68 29q39 0 60 -30q55 -85 126 -191q11 -24 -8 -35q-19 -16 -33 2l-161 161l-227 -160q-24 -17 -33 2z" />
<glyph unicode="&#xe3;" d="M35 236q-3 257 170 443q109 117 337 117q135 0 313 -41l-110 -478q-13 -55 -12 -119q0 -82 17 -158h-206q-14 124 22 263q-80 -121 -185 -198.5t-192 -73.5q-151 5 -154 245zM211 230q0 -91 41 -110q20 -9 95 33q85 50 152 126q85 98 114 209l55 219q-93 17 -154 18 q-96 0 -166 -71q-47 -49 -92 -185.5t-45 -238.5zM343 972q0 17 11 33q49 72 130 73q63 0 110 -46q30 -28 65 -28q47 0 86 40q9 9 19 10q27 0 27 -38q0 -14 -8 -27q-44 -74 -134 -74q-63 0 -107 44q-32 32 -68 32q-32 0 -65.5 -26t-41.5 -26q-24 0 -24 33z" />
<glyph unicode="&#xe4;" d="M35 236q-3 257 170 443q109 117 337 117q135 0 313 -41l-110 -478q-13 -55 -12 -119q0 -82 17 -158h-206q-14 124 22 263q-80 -121 -185 -198.5t-192 -73.5q-151 5 -154 245zM211 230q0 -91 41 -110q20 -9 95 33q85 50 152 126q85 98 114 209l55 219q-93 17 -154 18 q-96 0 -166 -71q-47 -49 -92 -185.5t-45 -238.5zM373 999q0 38 26 72.5t63 28.5q55 -11 55 -79q0 -38 -25 -71q-29 -38 -65 -30q-54 11 -54 79zM636 999q0 38 27 73t63 28q54 -11 54 -79q0 -38 -26 -72.5t-62 -28.5q-55 11 -56 79z" />
<glyph unicode="&#xe5;" d="M35 236q-3 257 170 443q109 117 337 117q135 0 313 -41l-110 -478q-13 -55 -12 -119q0 -82 17 -158h-206q-14 124 22 263q-80 -121 -185 -198.5t-192 -73.5q-151 5 -154 245zM211 230q0 -91 41 -110q20 -9 95 33q85 50 152 126q85 98 114 209l55 219q-93 17 -154 18 q-96 0 -166 -71q-47 -49 -92 -185.5t-45 -238.5zM452 1056q0 54 38.5 93.5t98.5 39.5q55 0 96 -36.5t41 -93.5q0 -55 -38.5 -94.5t-98.5 -39.5q-55 0 -96 37t-41 94zM514 1056q0 -30 22.5 -50t52.5 -20q33 0 54.5 21.5t21.5 51.5t-23 49.5t-53 19.5q-33 0 -54 -21.5 t-21 -50.5z" />
<glyph unicode="&#xe6;" horiz-adv-x="1235" d="M-61 195q0 69 42 141q52 85 142.5 122t224.5 41q77 3 123 38q36 28 38 66q2 47 -35 84q-43 43 -115 42q-124 0 -299 -124l36 121q143 80 290 81q192 0 261 -100q104 90 232 96q123 6 208 -80q95 -96 101 -274h-523q-5 -32 -5 -69q0 -113 36 -202q44 -104 123 -110 q107 -8 227 160l54 -56q-139 -184 -317 -186q-213 -2 -279 195q-74 -80 -176 -138q-112 -63 -185 -56q-99 11 -151.5 69.5t-52.5 138.5zM106 247q0 -25 9 -49q41 -95 129 -94q17 0 36 5q52 13 114 66q69 60 77 112l27 179q-58 -28 -162 -47q-95 -17 -152 -50 q-79 -46 -78 -122zM677 526h331q0 102 -55 156q-43 43 -101 41q-134 -3 -175 -197z" />
<glyph unicode="&#xe7;" horiz-adv-x="746" d="M0 351q11 208 150 336q129 121 305 118q129 -2 268 -24l-38 -159q-106 104 -242 111q-129 6 -197 -115q-50 -93 -51 -218q0 -148 52 -240t136 -92q115 0 242 160l60 -56q-145 -176 -346 -186l-32 -60q72 -8 115 -46q38 -35 35 -80q-3 -44 -44 -75.5t-107 -31.5 q-88 0 -193 60l35 56q61 -50 150 -50q68 0 61 47q-6 60 -123 60q-20 0 -44 -3l63 129q-118 20 -186 106q-79 96 -69 253z" />
<glyph unicode="&#xe8;" horiz-adv-x="819" d="M14 317q0 210 137 349q129 131 304 137q137 6 232 -80q104 -96 112 -274h-582q-6 -32 -6 -71q0 -113 41 -200q50 -104 137 -110q118 -8 252 160l60 -56q-153 -183 -353 -186q-139 -2 -230 77q-104 90 -104 254zM232 526h367q0 104 -62 156q-47 43 -112 41 q-150 -3 -193 -197zM405 1128q0 25 14 39.5t41 14.5q27 -2 41.5 -15t179.5 -226q9 -19 -2 -30q-6 -3 -16 -4q-9 0 -14 4q-19 17 -121.5 94t-108.5 84q-14 14 -14 39z" />
<glyph unicode="&#xe9;" horiz-adv-x="819" d="M14 317q0 210 137 349q129 131 304 137q137 6 232 -80q104 -96 112 -274h-582q-6 -32 -6 -71q0 -113 41 -200q50 -104 137 -110q118 -8 252 160l60 -56q-153 -183 -353 -186q-139 -2 -230 77q-104 90 -104 254zM232 526h367q0 104 -62 156q-47 43 -112 41 q-150 -3 -193 -197zM408 911q-9 9 0 30q82 106 181 226q13 13 40 15q27 0 41 -14.5t12 -39.5q0 -25 -14 -39q-95 -72 -227 -178q-5 -3 -16 -4q-11 0 -17 4z" />
<glyph unicode="&#xea;" horiz-adv-x="819" d="M14 317q0 210 137 349q129 131 304 137q137 6 232 -80q104 -96 112 -274h-582q-6 -32 -6 -71q0 -113 41 -200q50 -104 137 -110q118 -8 252 160l60 -56q-153 -183 -353 -186q-139 -2 -230 77q-104 90 -104 254zM232 526h367q0 104 -62 156q-47 43 -112 41 q-150 -3 -193 -197zM252 931q-11 14 3 35q22 17 205 187q32 28 68 29q39 0 60 -30q55 -85 126 -191q11 -24 -8 -35q-19 -16 -33 2l-161 161l-227 -160q-24 -17 -33 2z" />
<glyph unicode="&#xeb;" horiz-adv-x="819" d="M14 317q0 210 137 349q129 131 304 137q137 6 232 -80q104 -96 112 -274h-582q-6 -32 -6 -71q0 -113 41 -200q50 -104 137 -110q118 -8 252 160l60 -56q-153 -183 -353 -186q-139 -2 -230 77q-104 90 -104 254zM232 526h367q0 104 -62 156q-47 43 -112 41 q-150 -3 -193 -197zM336 999q0 38 26 72.5t62 28.5q55 -11 55 -79q0 -38 -25 -71q-29 -38 -65 -30q-54 11 -53 79zM599 999q0 38 26.5 73t62.5 28q54 -11 54 -79q0 -38 -26 -72.5t-62 -28.5q-55 11 -55 79z" />
<glyph unicode="&#xec;" horiz-adv-x="467" d="M30 2l135 605q8 35 8 67q0 54 -17 93l235 49l-145 -644q-6 -28 -7 -57q0 -63 27 -113h-236zM184 1128q0 25 14.5 39.5t40.5 14.5q27 -2 41.5 -15t179.5 -226q8 -17 -2 -32q-6 -3 -15 -3t-14 3q-107 82 -231 180q-14 14 -14 39z" />
<glyph unicode="&#xed;" horiz-adv-x="467" d="M30 2l135 605q8 35 8 67q0 54 -17 93l235 49l-145 -644q-6 -28 -7 -57q0 -63 27 -113h-236zM151 909q-9 14 0 32q82 106 181 226q13 13 40 15q27 0 41 -14.5t12 -39.5q0 -25 -14 -39q-95 -71 -227 -178q-14 -13 -33 -2z" />
<glyph unicode="&#xee;" horiz-adv-x="467" d="M30 2l135 605q8 35 8 67q0 54 -17 93l235 49l-145 -644q-6 -28 -7 -57q0 -63 27 -113h-236zM98 931q-11 14 3 35q22 17 205 187q32 28 67 29q39 0 60 -30q55 -85 126 -191q11 -24 -8 -35q-19 -16 -33 2q-46 44 -160 161q-91 -66 -227 -160q-24 -17 -33 2z" />
<glyph unicode="&#xef;" horiz-adv-x="467" d="M30 2l135 605q8 35 8 67q0 54 -17 93l235 49l-145 -644q-6 -28 -7 -57q0 -63 27 -113h-236zM132 999q0 38 26 72.5t63 28.5q55 -11 55 -79q0 -39 -27 -74t-63 -27q-54 11 -54 79zM395 999q0 38 27 73t63 28q54 -11 54 -79q0 -38 -26 -72.5t-62 -28.5q-55 11 -56 79z" />
<glyph unicode="&#xf0;" horiz-adv-x="874" d="M6 318q-2 172 101 304q93 120 233 161q63 19 122 19q54 0 102 -16q-9 118 -87 211l-197 -164l-55 67l199 163q-147 148 -345 136l69 94q225 -54 350 -168l222 187l54 -64l-210 -177q126 -148 175 -269q53 -135 55 -333t-131.5 -341.5t-328.5 -143.5q-137 0 -227 81 q-99 90 -101 253zM205 369q0 -35 3 -65q11 -85 54 -154q52 -85 126 -85q24 0 50 9q158 61 157 350q0 33 -3 61q-8 82 -55 153q-55 85 -127 85q-24 0 -49 -9q-82 -32 -123 -144q-33 -90 -33 -201z" />
<glyph unicode="&#xf1;" horiz-adv-x="983" d="M30 2l139 601q8 32 7 62q0 57 -22 99l240 41l-58 -247q194 239 348 245q173 8 173 -198q0 -65 -19 -145l-68 -293q-6 -27 -6 -55q0 -61 27 -110h-236l108 469q17 77 18 126q0 90 -59 90q-46 0 -116 -54q-117 -90 -186 -242q-61 -134 -114 -389h-176zM358 972q0 17 11 33 q49 72 129 73q63 0 110 -46q30 -28 65 -28q47 0 86 40q9 9 19 10q27 0 27 -38q0 -14 -8 -27q-44 -74 -134 -74q-63 0 -107 44q-32 32 -68 32q-32 0 -65.5 -26t-41.5 -26q-24 0 -23 33z" />
<glyph unicode="&#xf2;" horiz-adv-x="866" d="M6 318q-2 198 132.5 341t327.5 143q139 0 227 -80q99 -89 101 -253q2 -198 -131.5 -341.5t-328.5 -143.5q-137 0 -227 81q-99 90 -101 253zM205 369q0 -35 3 -65q11 -85 54 -154q52 -85 126 -85q24 0 50 9q158 61 157 350q0 33 -3 61q-8 82 -55 153q-55 85 -127 85 q-24 0 -49 -9q-82 -32 -123 -144q-33 -90 -33 -201zM359 1128q0 25 14.5 39.5t40.5 14.5q27 -2 41.5 -15t179.5 -226q9 -19 -2 -30q-6 -3 -15 -4q-9 0 -15 4q-19 17 -121 94t-109 84q-14 14 -14 39z" />
<glyph unicode="&#xf3;" horiz-adv-x="866" d="M6 318q-2 198 132.5 341t327.5 143q139 0 227 -80q99 -89 101 -253q2 -198 -131.5 -341.5t-328.5 -143.5q-137 0 -227 81q-99 90 -101 253zM205 369q0 -35 3 -65q11 -85 54 -154q52 -85 126 -85q24 0 50 9q158 61 157 350q0 33 -3 61q-8 82 -55 153q-55 85 -127 85 q-24 0 -49 -9q-82 -32 -123 -144q-33 -90 -33 -201zM375 911q-9 9 0 30q82 106 181 226q13 13 39 15q27 0 41.5 -14.5t12.5 -39.5q0 -25 -14 -39q-95 -72 -227 -178q-5 -3 -16 -4q-11 0 -17 4z" />
<glyph unicode="&#xf4;" horiz-adv-x="866" d="M6 318q-2 198 132.5 341t327.5 143q139 0 227 -80q99 -89 101 -253q2 -198 -131.5 -341.5t-328.5 -143.5q-137 0 -227 81q-99 90 -101 253zM205 369q0 -35 3 -65q11 -85 54 -154q52 -85 126 -85q24 0 50 9q158 61 157 350q0 33 -3 61q-8 82 -55 153q-55 85 -127 85 q-24 0 -49 -9q-82 -32 -123 -144q-33 -90 -33 -201zM291 931q-11 14 4 35q22 17 204 187q32 28 68 29q39 0 60 -30q55 -85 126 -191q11 -24 -8 -35q-19 -16 -33 2l-161 161l-226 -160q-24 -17 -34 2z" />
<glyph unicode="&#xf5;" horiz-adv-x="866" d="M6 318q-2 198 132.5 341t327.5 143q139 0 227 -80q99 -89 101 -253q2 -198 -131.5 -341.5t-328.5 -143.5q-137 0 -227 81q-99 90 -101 253zM205 369q0 -35 3 -65q11 -85 54 -154q52 -85 126 -85q24 0 50 9q158 61 157 350q0 33 -3 61q-8 82 -55 153q-55 85 -127 85 q-24 0 -49 -9q-82 -32 -123 -144q-33 -90 -33 -201zM244 972q0 17 11 33q49 72 129 73q63 0 111 -46q30 -28 64 -28q47 0 87 40q9 9 19 10q27 0 27 -38q0 -14 -8 -27q-44 -74 -134 -74q-63 0 -107 44q-32 32 -68 32q-32 0 -65.5 -26t-41.5 -26q-24 0 -24 33z" />
<glyph unicode="&#xf6;" horiz-adv-x="866" d="M6 318q-2 198 132.5 341t327.5 143q139 0 227 -80q99 -89 101 -253q2 -198 -131.5 -341.5t-328.5 -143.5q-137 0 -227 81q-99 90 -101 253zM205 369q0 -35 3 -65q11 -85 54 -154q52 -85 126 -85q24 0 50 9q158 61 157 350q0 33 -3 61q-8 82 -55 153q-55 85 -127 85 q-24 0 -49 -9q-82 -32 -123 -144q-33 -90 -33 -201zM304 999q0 38 26 72.5t62 28.5q55 -11 55 -79q0 -38 -25 -71q-28 -38 -64 -30q-54 11 -54 79zM567 999q0 38 27 73t63 28q54 -11 53 -79q0 -38 -26 -72.5t-62 -28.5q-55 11 -55 79z" />
<glyph unicode="&#xf7;" horiz-adv-x="1121" d="M63 397v107h819v-107h-819zM369 140q0 41 31.5 72t72.5 31t72.5 -31t31.5 -72t-31.5 -71.5t-72.5 -30.5t-72.5 30.5t-31.5 71.5zM369 758q0 41 31.5 71.5t72.5 30.5t72.5 -30.5t31.5 -71.5t-31.5 -72t-72.5 -31t-72.5 31t-31.5 72z" />
<glyph unicode="&#xf8;" horiz-adv-x="866" d="M-13 19l85 83q-74 98 -64 249q11 189 142.5 320.5t315.5 131.5q147 0 237 -89l77 75l55 -55l-85 -82q50 -91 42 -212q-11 -189 -141.5 -321.5t-314.5 -132.5q-118 0 -205 61l-87 -85zM203 369q0 -79 18 -123l346 335q-60 142 -159 142q-22 0 -47 -9q-80 -30 -123 -141 q-35 -91 -35 -204zM252 164q52 -99 136 -99q25 0 50 9q156 60 156 350q0 36 -3 72z" />
<glyph unicode="&#xf9;" horiz-adv-x="956" d="M63 195q0 61 16 128l64 277q8 33 8 66q0 54 -19 93l237 46l-117 -499q-17 -77 -17 -126q0 -90 58 -90q46 0 117 53q117 88 185 246q63 137 115 392h177l-126 -546q-11 -46 -11 -95q0 -77 25 -140h-206q5 102 14 228q-194 -239 -348 -245q-172 -8 -172 212zM397 1128 q0 25 14 39.5t41 14.5q27 -2 41.5 -15t179.5 -226q9 -19 -2 -30q-6 -3 -16 -4q-9 0 -14 4q-19 17 -121.5 94t-108.5 84q-14 14 -14 39z" />
<glyph unicode="&#xfa;" horiz-adv-x="956" d="M63 195q0 61 16 128l64 277q8 33 8 66q0 54 -19 93l237 46l-117 -499q-17 -77 -17 -126q0 -90 58 -90q46 0 117 53q117 88 185 246q63 137 115 392h177l-126 -546q-11 -46 -11 -95q0 -77 25 -140h-206q5 102 14 228q-194 -239 -348 -245q-172 -8 -172 212zM498 911 q-9 9 0 30q82 106 181 226q13 13 39 15q27 0 41.5 -14.5t12.5 -39.5q0 -25 -14 -39q-95 -71 -227 -177q-14 -13 -33 -1z" />
<glyph unicode="&#xfb;" horiz-adv-x="956" d="M63 195q0 61 16 128l64 277q8 33 8 66q0 54 -19 93l237 46l-117 -499q-17 -77 -17 -126q0 -90 58 -90q46 0 117 53q117 88 185 246q63 137 115 392h177l-126 -546q-11 -46 -11 -95q0 -77 25 -140h-206q5 102 14 228q-194 -239 -348 -245q-172 -8 -172 212zM339 931 q-11 14 3 35q22 17 205 187q32 28 67 29q39 0 60 -30q55 -85 126 -191q11 -24 -8 -35q-19 -16 -33 2l-160 161l-227 -160q-24 -17 -33 2z" />
<glyph unicode="&#xfc;" horiz-adv-x="956" d="M63 195q0 61 16 128l64 277q8 33 8 66q0 54 -19 93l237 46l-117 -499q-17 -77 -17 -126q0 -90 58 -90q46 0 117 53q117 88 185 246q63 137 115 392h177l-126 -546q-11 -46 -11 -95q0 -77 25 -140h-206q5 102 14 228q-194 -239 -348 -245q-172 -8 -172 212zM364 999 q0 38 26 72.5t62 28.5q55 -11 55 -79q0 -38 -25 -71q-29 -38 -65 -30q-54 11 -53 79zM627 999q0 38 27 73t63 28q54 -11 53 -79q0 -38 -26 -72.5t-62 -28.5q-55 11 -55 79z" />
<glyph unicode="&#xfd;" horiz-adv-x="956" d="M-3 -463l22 82q71 -17 134 -18q164 0 264 114q74 85 103 216l68 305q-195 -246 -353 -253q-172 -8 -172 212q0 61 16 128l64 277q8 33 8 66q0 54 -19 93l237 46l-117 -499q-17 -77 -17 -126q0 -90 58 -90q46 0 117 53q117 88 185 246q63 137 115 392h177l-192 -864 q-87 -392 -523 -393q-80 0 -175 13zM466 911q-8 13 0 30q82 107 181 228q13 13 40 14q27 0 41 -14t12 -41q0 -25 -14 -38q-95 -72 -227 -178q-14 -13 -33 -1z" />
<glyph unicode="&#xfe;" horiz-adv-x="924" d="M-91 -490l354 1557q6 30 6 58q0 60 -25 104l244 49l-173 -755q80 121 185 198.5t192 74.5q151 -5 154 -246q3 -257 -170 -443q-109 -117 -337 -116q-71 0 -144 12l-63 -282q-6 -30 -6 -58q0 -60 25 -104zM213 79q93 -17 154 -18q96 0 165 71q47 49 92.5 185.5t45.5 238.5 q0 91 -41 110q-20 9 -95 -33q-85 -50 -153 -126q-85 -98 -113 -209z" />
<glyph unicode="&#xff;" horiz-adv-x="956" d="M25 -466l21 77q77 -19 143 -19q282 0 353 323l80 370q-82 -126 -192 -214t-198 -93q-148 -8 -149 181q0 66 19 155l65 297q11 50 11 92q0 44 -11 66l170 34l-107 -493q-9 -41 -9 -82q0 -137 74 -133q49 2 129 64q178 140 305 627h128l-187 -876q-83 -388 -492 -387 q-71 0 -153 11zM364 997q0 38 26 73.5t62 29.5q55 -11 55 -81q0 -39 -25 -72q-29 -38 -65 -30q-54 11 -53 80zM627 997q0 39 27 74.5t63 28.5q54 -11 53 -81q0 -38 -25 -71q-27 -37 -63 -31q-55 11 -55 80z" />
<glyph unicode="&#x152;" horiz-adv-x="1433" d="M30 498q0 232 178 428q189 210 443 205q95 -2 173 -27h584l37 -132q-85 46 -230 46h-226l-74 -331h411l-20 -87h-410l-121 -513h263q222 0 282 69l-68 -156h-603q-57 -14 -124 -14q-189 -2 -320 97q-175 134 -175 415zM213 573q-11 -158 60 -297q99 -197 321 -196 l200 890q-98 68 -200 68q-132 0 -238 -109q-126 -129 -143 -356z" />
<glyph unicode="&#x153;" horiz-adv-x="1269" d="M6 323q0 186 112 328q121 153 301 152q162 0 243 -129q115 123 267 129q124 5 208 -80q95 -96 101 -274h-523q-5 -32 -5 -69q0 -113 37 -202q44 -104 123 -110q107 -8 226 160l54 -56q-137 -183 -317 -186q-169 -3 -250 131q-118 -131 -282 -131q-124 0 -205 80 q-90 91 -90 257zM184 369q0 -35 3 -65q9 -85 48 -154q47 -85 113 -85q22 0 46 9q142 60 142 348q-1 35 -4 63q-8 82 -48 153q-50 85 -117 85q-20 0 -42 -9q-72 -32 -111 -142q-30 -91 -30 -203zM728 526h331q0 102 -55 156q-43 43 -101 41q-134 -3 -175 -197z" />
<glyph unicode="&#x178;" horiz-adv-x="960" d="M-112 -290q162 66 242 116.5t127 123.5l69 107l-206 847q-22 91 -96 202l238 -2l207 -860l552 860h154q-88 -79 -105 -99q-32 -33 -66 -87l-596 -932q-145 -228 -252 -323zM465 1339q0 38 26 72.5t62 28.5q55 -11 55 -79q0 -39 -25 -72q-29 -38 -65 -30q-54 11 -53 80z M728 1339q0 38 26.5 73.5t63.5 27.5q54 -11 53 -79q0 -38 -25 -71q-27 -37 -63 -31q-55 9 -55 80z" />
<glyph unicode="&#x2c6;" d="M339 931q-11 14 3 35q22 17 205 187q32 28 67 29q39 0 60 -30q55 -85 126 -191q11 -24 -8 -35q-19 -16 -33 2l-160 161l-227 -160q-24 -17 -33 2z" />
<glyph unicode="&#x2dc;" horiz-adv-x="1024" d="M358 972q0 17 11 33q49 72 129 73q63 0 110 -46q30 -28 65 -28q47 0 86 40q9 9 19 10q27 0 27 -38q0 -14 -8 -27q-44 -74 -134 -74q-63 0 -107 44q-32 32 -68 32q-32 0 -65.5 -26t-41.5 -26q-24 0 -23 33z" />
<glyph unicode="&#x2000;" horiz-adv-x="746" />
<glyph unicode="&#x2001;" horiz-adv-x="1493" />
<glyph unicode="&#x2002;" horiz-adv-x="746" />
<glyph unicode="&#x2003;" horiz-adv-x="1493" />
<glyph unicode="&#x2004;" horiz-adv-x="497" />
<glyph unicode="&#x2005;" horiz-adv-x="373" />
<glyph unicode="&#x2006;" horiz-adv-x="248" />
<glyph unicode="&#x2007;" horiz-adv-x="248" />
<glyph unicode="&#x2008;" horiz-adv-x="186" />
<glyph unicode="&#x2009;" horiz-adv-x="298" />
<glyph unicode="&#x200a;" horiz-adv-x="82" />
<glyph unicode="&#x2010;" horiz-adv-x="850" d="M96 354l63 153q285 0 347 5q136 9 204 55l-66 -156q-287 0 -346 -5q-137 -9 -202 -52z" />
<glyph unicode="&#x2011;" horiz-adv-x="850" d="M96 354l63 153q285 0 347 5q136 9 204 55l-66 -156q-287 0 -346 -5q-137 -9 -202 -52z" />
<glyph unicode="&#x2012;" horiz-adv-x="850" d="M96 354l63 153q285 0 347 5q136 9 204 55l-66 -156q-287 0 -346 -5q-137 -9 -202 -52z" />
<glyph unicode="&#x2013;" horiz-adv-x="1046" d="M63 395v109h1000v-109h-1000z" />
<glyph unicode="&#x2014;" horiz-adv-x="1893" d="M63 395v109h1826v-109h-1826z" />
<glyph unicode="&#x2018;" horiz-adv-x="478" d="M186 958q0 55 57 131q44 60 100 102l62 -19q-58 -65 -80 -107q-2 -6 22 -24q47 -33 47 -86q0 -41 -31.5 -72.5t-72.5 -31.5q-43 0 -73.5 31.5t-30.5 75.5z" />
<glyph unicode="&#x2019;" horiz-adv-x="500" d="M210 866q58 65 80 108q2 6 -22 23q-47 33 -47 87q0 41 31.5 72.5t72.5 31.5q43 0 73.5 -31.5t30.5 -75.5q0 -55 -57 -131q-44 -59 -101 -102z" />
<glyph unicode="&#x201a;" horiz-adv-x="433" d="M17 -106q58 65 81 108q2 6 -22 23q-47 33 -48 87q0 41 31.5 72.5t72.5 31.5q43 0 73.5 -31.5t30.5 -75.5q0 -55 -56 -131q-44 -59 -101 -102z" />
<glyph unicode="&#x201c;" horiz-adv-x="623" d="M47 958q0 55 57 131q44 60 101 102l61 -19q-58 -65 -80 -107q-2 -6 22 -24q47 -33 47 -86q0 -41 -31.5 -72.5t-72.5 -31.5q-43 0 -73.5 31.5t-30.5 75.5zM331 958q0 55 57 131q44 60 100 102l62 -19q-58 -65 -81 -107q-2 -6 23 -24q47 -33 47 -86q0 -41 -31.5 -72.5 t-72.5 -31.5q-43 0 -73.5 31.5t-30.5 75.5z" />
<glyph unicode="&#x201d;" horiz-adv-x="694" d="M210 866q58 65 80 108q2 6 -22 23q-47 33 -47 87q0 41 31.5 72.5t72.5 31.5q43 0 73.5 -31.5t30.5 -75.5q0 -55 -57 -131q-44 -59 -101 -102zM493 866q58 65 80 108q2 6 -22 23q-47 33 -47 87q0 41 31.5 72.5t72.5 31.5q43 0 73.5 -31.5t30.5 -75.5q0 -55 -57 -131 q-43 -59 -100 -102z" />
<glyph unicode="&#x201e;" horiz-adv-x="694" d="M17 -106q58 65 81 108q2 6 -22 23q-47 33 -48 87q0 41 31.5 72.5t72.5 31.5q43 0 73.5 -31.5t30.5 -75.5q0 -55 -56 -131q-44 -59 -101 -102zM301 -106q58 65 80 108q2 6 -22 23q-47 33 -47 87q0 41 31.5 72.5t72.5 31.5q43 0 73.5 -31.5t30.5 -75.5q0 -55 -57 -131 q-44 -59 -101 -102z" />
<glyph unicode="&#x2022;" horiz-adv-x="756" d="M238 432q0 65 46.5 112t109.5 47q65 0 112 -48t47 -111t-47.5 -109.5t-111.5 -46.5q-65 0 -110.5 45.5t-45.5 110.5z" />
<glyph unicode="&#x2026;" horiz-adv-x="1313" d="M27 87q0 49 30.5 89.5t77.5 40.5q43 0 70.5 -30.5t27.5 -74.5q0 -52 -38.5 -97.5t-88.5 -34.5q-79 17 -79 107zM430 87q0 49 31 89.5t78 40.5q43 0 70 -30.5t27 -74.5q0 -52 -38.5 -97.5t-88.5 -34.5q-79 17 -79 107zM837 87q0 49 30.5 89.5t77.5 40.5q43 0 70.5 -30.5 t27.5 -74.5q0 -52 -39 -97.5t-89 -34.5q-79 17 -78 107z" />
<glyph unicode="&#x202f;" horiz-adv-x="298" />
<glyph unicode="&#x2039;" horiz-adv-x="634" d="M71 386q0 28 27 49l351 268q22 15 35 -4q11 -16 -7 -33l-272 -275l153 -268q11 -20 -7 -35q-20 -17 -36 0l-233 270q-11 13 -11 28z" />
<glyph unicode="&#x203a;" horiz-adv-x="634" d="M101 90q-11 16 6 33l273 276l-153 267q-11 20 6 35q20 17 36 0l234 -269q11 -13 11 -29q0 -28 -27 -49l-352 -267q-22 -16 -34 3z" />
<glyph unicode="&#x205f;" horiz-adv-x="373" />
<glyph unicode="&#x20ac;" horiz-adv-x="1134" d="M-19 447l68 95h79q3 25 12 76h-124l67 94h87q112 284 397 389q85 32 183 32q148 0 348 -76l-35 -180q-159 176 -323 177q-79 0 -162 -39q-192 -90 -247 -303h650l-67 -94h-599q-2 -14 -5 -76h574l-68 -95h-501q19 -134 98 -236q102 -132 261 -132q128 0 265 115l63 -65 q-178 -148 -384 -145q-224 3 -352 128q-124 120 -138 335h-147z" />
<glyph unicode="&#x2122;" horiz-adv-x="1586" d="M107 1004l44 111h580l55 -111q-96 32 -148 31h-140v-487q0 -61 23 -110h-160q24 52 23 110v487h-141q-50 0 -136 -31zM726 438q30 63 40 126l78 559h41l260 -515l267 515h34l77 -556q7 -47 45 -129h-166q11 57 3 123l-39 309l-219 -432h-36l-218 430l-44 -307 q-9 -65 8 -123h-131z" />
<glyph unicode="&#xe000;" horiz-adv-x="787" d="M0 0v788h788v-788h-788z" />
</font>
</defs>
</svg>
